<svg width="554" height="554" viewBox="0 0 554 554" fill="none" xmlns="http://www.w3.org/2000/svg">
<path d="M381.798 205.573C374.355 205.573 368.296 198.995 369.334 191.292C370.2 184.973 375.913 180.386 382.231 180.386H503.15C519.509 180.386 529.982 162.988 522.365 148.533L522.106 148.1C518.297 140.83 510.853 136.329 502.631 136.329H410.881C408.93 136.329 407.059 135.554 405.679 134.174C404.299 132.794 403.524 130.923 403.524 128.971C403.524 127.02 404.299 125.149 405.679 123.769C407.059 122.389 408.93 121.614 410.881 121.614H460.738C480.04 121.614 489.734 98.4171 476.318 84.5682C425.942 32.4614 355.226 0.00292969 276.979 0.00292969C158.83 0.00292969 57.906 74.0083 18.1768 178.222C9.86738 200.034 26.2265 223.404 49.51 223.404H116.591C121.784 223.404 126.545 227.212 127.064 232.406C127.67 238.378 122.91 243.485 117.11 243.485H33.4972C15.1473 243.485 0 258.286 0 276.636V276.982C0 428.369 121.525 551.451 272.305 553.961C424.73 556.385 551.535 433.822 553.958 281.483C554.305 261.402 552.487 241.84 548.678 222.971C547.677 218.046 544.999 213.62 541.101 210.448C537.203 207.275 532.325 205.553 527.299 205.573H381.798ZM205.138 182.809C205.138 185.666 202.801 188.089 199.858 188.089H54.1841C51.3277 188.089 48.9041 185.752 48.9041 182.809C48.9041 179.953 51.2411 177.529 54.1841 177.529H199.944C202.801 177.616 205.138 179.953 205.138 182.809Z" fill="#ECF2FF"/>
<path d="M489.906 454.076C439.098 515.098 362.582 553.961 276.979 553.961C191.375 553.961 114.859 515.098 64.0508 454.076H489.906Z" fill="#D5E2FF"/>
<path d="M10.0405 236.993C15.5857 236.993 20.081 232.498 20.081 226.953C20.081 221.408 15.5857 216.912 10.0405 216.912C4.49528 216.912 0 221.408 0 226.953C0 232.498 4.49528 236.993 10.0405 236.993Z" fill="#ECF2FF"/>
<path d="M541.321 198.995C548.3 198.995 553.958 193.337 553.958 186.358C553.958 179.379 548.3 173.721 541.321 173.721C534.341 173.721 528.684 179.379 528.684 186.358C528.684 193.337 534.341 198.995 541.321 198.995Z" fill="#ECF2FF"/>
<path d="M493.889 129.924C497.952 129.924 501.246 126.63 501.246 122.566C501.246 118.503 497.952 115.209 493.889 115.209C489.825 115.209 486.531 118.503 486.531 122.566C486.531 126.63 489.825 129.924 493.889 129.924Z" fill="#ECF2FF"/>
<path d="M431.828 428.888L430.356 428.628C427.414 428.109 424.298 428.888 422.134 430.965C419.71 433.389 418.325 437.544 424.471 444.641C429.491 450.44 436.415 453.037 442.647 454.162H470.518C476.664 453.037 483.675 450.44 488.695 444.641C494.841 437.544 493.456 433.302 491.032 430.965C488.868 428.888 485.752 428.109 482.809 428.628C482.377 428.715 481.857 428.801 481.338 428.888C473.461 430.619 466.797 435.986 462.902 443.083L457.708 452.518C455.025 443.516 453.986 431.658 456.669 418.847C461.517 420.579 476.924 424.906 488.695 417.03C496.485 411.836 496.226 407.336 494.494 404.393C492.936 401.796 490.167 400.324 487.224 399.978C486.791 399.978 486.272 399.892 485.752 399.892C477.703 399.545 469.826 402.921 464.286 408.72L457.362 415.905C459.266 408.288 462.469 400.411 467.402 392.708C468.441 391.063 469.393 389.332 470.259 387.601C474.76 389.159 488.003 392.708 498.043 385.87C504.795 381.282 504.622 377.387 503.15 374.877C501.852 372.627 499.342 371.328 496.745 371.069C496.312 371.069 495.879 370.982 495.447 370.982C488.349 370.636 481.511 373.579 476.664 378.685L472.336 383.186C475.452 375.743 477.53 367.606 478.914 359.903C482.983 360.422 496.139 361.201 504.189 352.805C509.469 347.266 508.517 343.803 506.612 341.726C505.764 340.872 504.726 340.23 503.583 339.854C502.44 339.478 501.224 339.378 500.034 339.562C499.688 339.649 499.255 339.649 498.822 339.735C492.331 340.86 486.704 344.929 483.242 350.555L479.434 356.873C480.819 348.131 481.338 340.168 481.511 335.061C484.021 331.339 491.898 318.356 487.57 305.805C484.714 297.669 480.732 296.717 477.616 297.669C474.933 298.448 472.942 300.612 471.99 303.122C471.817 303.555 471.73 303.988 471.557 304.42C469.307 311.605 470.518 319.395 474.413 325.713L479.347 333.849C479.174 339.822 478.482 350.468 476.318 361.807L475.971 355.662C475.539 348.91 472.423 342.505 467.056 338.35C466.71 338.091 466.364 337.831 466.104 337.658C465.112 336.92 463.961 336.426 462.743 336.215C461.525 336.005 460.275 336.084 459.093 336.446C456.41 337.398 453.813 340.081 455.977 347.612C459.18 359.124 471.557 364.663 475.452 366.221C473.548 374.617 470.692 383.186 466.537 390.111L465.931 380.07C465.498 372.713 462.123 365.789 456.323 361.288L455.285 360.509C453.034 358.951 450.264 358.345 447.668 359.21C444.725 360.249 441.955 363.192 444.292 371.328C447.841 384.052 461.776 390.111 465.671 391.582C460.46 399.771 456.766 408.831 454.765 418.328L451.13 407.855C448.36 399.978 442.474 393.4 434.771 390.284C434.251 390.111 433.819 389.938 433.386 389.765C430.443 388.726 427.154 388.986 424.644 390.717C421.701 392.708 419.624 396.776 424.644 405.085C432.434 417.895 449.572 420.319 454.419 420.665C452.342 432.61 453.294 443.689 455.804 452.345L450.524 442.823C446.369 435.986 439.705 430.619 431.828 428.888ZM93.4805 359.557C89.8452 332.897 81.6224 334.975 76.6887 339.129C74.2651 341.207 72.4474 343.89 71.3222 346.919C57.6464 381.542 71.755 445.074 73.0533 454.335H86.5561C93.0478 417.116 96.7697 383.359 93.4805 359.557Z" fill="#B7C8EC"/>
<path d="M93.4814 404.393C83.0081 418.069 75.4778 436.332 71.7559 446.719C72.3618 450.267 72.8811 452.951 73.0542 454.336H86.5569C89.673 436.678 92.0965 419.8 93.4814 404.393Z" fill="#9BADD6"/>
<path d="M73.0531 454.335H85.6903L85.6037 453.643C81.449 427.243 72.6203 404.393 65.3496 388.812C65.6958 418.415 72.1875 448.19 73.0531 454.335Z" fill="#9BADD6"/>
<path d="M51.8472 372.28C50.1161 369.338 47.6926 366.741 44.7497 364.923C39.7294 361.894 32.4587 361.028 30.0351 377.474C26.3998 401.883 61.1953 447.498 66.4752 454.336H81.3628C74.9577 413.827 57.5599 381.888 51.8472 372.28Z" fill="#B7C8EC"/>
<path d="M36.1797 364.058L72.7063 454.336H74.9568C74.9568 454.163 74.9568 454.076 74.8702 453.903L38.1705 363.279C37.478 363.452 36.7856 363.712 36.1797 364.058Z" fill="#9BADD6"/>
<path d="M81.3626 454.336C80.2374 447.065 78.6794 440.14 77.0348 433.476C74.2613 439.881 71.7776 446.408 69.591 453.037L69.1582 454.336H81.3626Z" fill="#9BADD6"/>
<path d="M120.92 454.336C133.643 429.581 145.848 397.382 126.979 391.842C97.5496 383.187 76.2568 446.286 73.6602 454.336H120.92Z" fill="#B7C8EC"/>
<path d="M132.952 426.551C132.729 426.464 132.482 426.464 132.259 426.551L106.292 435.466L127.931 392.275V392.188C127.585 392.102 127.239 391.929 126.893 391.842C126.546 391.756 126.2 391.669 125.767 391.583L104.734 433.562L101.445 402.402C101.445 402.142 101.272 401.883 101.099 401.71C100.493 402.315 99.9738 402.921 99.3679 403.614L102.83 437.111L94.4342 453.816C94.3477 453.989 94.3477 454.163 94.3477 454.336H96.5981L104.648 438.236L131.913 428.888C132.432 428.109 132.779 427.33 132.952 426.551Z" fill="#9BADD6"/>
<path d="M93.9141 454.336H96.078V454.076L88.8073 425.08C88.7735 424.935 88.7099 424.798 88.6205 424.679C88.5311 424.56 88.4178 424.46 88.288 424.387C87.8552 425.166 87.4224 426.032 87.0762 426.811L93.9141 454.336Z" fill="#9BADD6"/>
<path d="M139.181 250.237C139.008 250.237 138.921 250.15 138.835 250.064C138.662 249.89 138.662 249.544 138.835 249.285L305.975 82.145C306.148 81.9719 306.494 81.9719 306.754 82.145C307.013 82.3181 306.927 82.6643 306.754 82.924L139.614 250.064C139.441 250.15 139.354 250.237 139.181 250.237ZM144.894 255.863C144.721 255.863 144.634 255.776 144.548 255.69C144.374 255.517 144.374 255.17 144.548 254.911L311.601 87.7711C311.774 87.598 312.12 87.598 312.38 87.7711C312.553 87.9442 312.553 88.2904 312.38 88.5501L145.24 255.69C145.153 255.776 144.98 255.863 144.894 255.863ZM150.52 261.576C150.347 261.576 150.26 261.489 150.174 261.402C150.001 261.229 150.001 260.883 150.174 260.623L317.313 93.4838C317.486 93.3107 317.833 93.3107 318.092 93.4838C318.352 93.6569 318.266 94.0031 318.092 94.2628L150.953 261.402C150.78 261.489 150.693 261.576 150.52 261.576ZM156.233 267.202C156.06 267.202 155.973 267.115 155.886 267.029C155.713 266.855 155.713 266.509 155.886 266.25L323.026 99.1099C323.199 98.9368 323.545 98.9368 323.805 99.1099C323.978 99.2831 323.978 99.6293 323.805 99.889L156.579 267.029C156.492 267.115 156.319 267.202 156.233 267.202ZM161.859 272.914C161.686 272.914 161.599 272.828 161.513 272.741C161.339 272.568 161.339 272.222 161.513 271.962L328.652 104.823C328.825 104.65 329.172 104.65 329.431 104.823C329.691 104.996 329.604 105.342 329.431 105.602L162.292 272.741C162.118 272.828 162.032 272.914 161.859 272.914ZM167.572 278.541C167.398 278.541 167.312 278.454 167.225 278.367C167.052 278.194 167.052 277.848 167.225 277.588L334.365 110.449C334.538 110.276 334.884 110.276 335.144 110.449C335.317 110.622 335.317 110.968 335.144 111.228L167.918 278.367C167.831 278.454 167.658 278.541 167.572 278.541ZM173.198 284.167C173.025 284.167 172.938 284.08 172.851 283.994C172.678 283.82 172.678 283.474 172.851 283.215L339.991 116.075C340.164 115.902 340.51 115.902 340.77 116.075C340.943 116.248 340.943 116.594 340.77 116.854L173.63 284.08C173.457 284.167 173.371 284.167 173.198 284.167ZM178.91 289.879C178.737 289.879 178.651 289.793 178.564 289.706C178.391 289.533 178.391 289.187 178.564 288.927L345.704 121.788C345.877 121.615 346.223 121.615 346.483 121.788C346.656 121.961 346.656 122.307 346.483 122.567L179.257 289.706C179.17 289.793 178.997 289.879 178.91 289.879ZM184.536 295.505C184.363 295.505 184.277 295.419 184.19 295.332C184.017 295.159 184.017 294.813 184.19 294.553L351.33 127.414C351.503 127.241 351.849 127.241 352.109 127.414C352.282 127.587 352.282 127.933 352.109 128.193L184.969 295.419C184.836 295.489 184.686 295.519 184.536 295.505ZM190.249 301.218C190.076 301.218 189.99 301.132 189.903 301.045C189.73 300.872 189.73 300.526 189.903 300.266L357.043 133.126C357.216 132.953 357.562 132.953 357.822 133.126C357.995 133.3 357.995 133.646 357.822 133.905L190.595 301.045C190.509 301.132 190.336 301.218 190.249 301.218ZM195.875 306.844C195.702 306.844 195.616 306.758 195.529 306.671C195.356 306.498 195.356 306.152 195.529 305.892L362.669 138.839C362.842 138.666 363.188 138.666 363.448 138.839C363.707 139.012 363.621 139.358 363.448 139.618L196.308 306.758C196.135 306.844 196.048 306.844 195.875 306.844ZM201.588 312.557C201.415 312.557 201.328 312.47 201.242 312.384C201.069 312.211 201.069 311.865 201.242 311.605L368.381 144.465C368.555 144.292 368.901 144.292 369.16 144.465C369.42 144.638 369.334 144.985 369.16 145.244L201.934 312.384C201.848 312.47 201.675 312.557 201.588 312.557ZM207.214 318.183C207.041 318.183 206.954 318.097 206.868 318.01C206.695 317.837 206.695 317.491 206.868 317.231L374.008 150.091C374.181 149.918 374.527 149.918 374.787 150.091C374.96 150.265 374.96 150.611 374.787 150.87L207.56 318.097C207.474 318.183 207.387 318.183 207.214 318.183ZM212.927 323.896C212.754 323.896 212.667 323.809 212.581 323.723C212.408 323.55 212.408 323.203 212.581 322.944L379.634 155.804C379.807 155.631 380.153 155.631 380.413 155.804C380.586 155.977 380.586 156.323 380.413 156.583L213.273 323.723C213.187 323.809 213.013 323.896 212.927 323.896ZM218.553 329.522C218.38 329.522 218.293 329.435 218.207 329.349C218.034 329.176 218.034 328.83 218.207 328.57L385.346 161.43C385.52 161.257 385.866 161.257 386.125 161.43C386.385 161.603 386.299 161.95 386.125 162.209L218.899 329.349C218.813 329.522 218.726 329.522 218.553 329.522ZM224.266 335.235C224.093 335.235 224.006 335.148 223.919 335.062C223.746 334.888 223.746 334.542 223.919 334.283L391.059 167.143C391.232 166.97 391.578 166.97 391.838 167.143C392.011 167.316 392.011 167.662 391.838 167.922L224.612 335.062C224.525 335.148 224.352 335.235 224.266 335.235ZM229.892 340.861C229.719 340.861 229.632 340.774 229.546 340.688C229.372 340.515 229.372 340.168 229.546 339.909L396.685 172.769C396.858 172.596 397.205 172.596 397.464 172.769C397.637 172.942 397.637 173.288 397.464 173.548L230.238 340.688C230.151 340.861 230.065 340.861 229.892 340.861ZM235.518 346.574C235.345 346.574 235.258 346.487 235.172 346.4C234.999 346.227 234.999 345.881 235.172 345.621L402.311 178.482C402.484 178.309 402.831 178.309 403.09 178.482C403.263 178.655 403.263 179.001 403.09 179.261L235.951 346.4C235.864 346.487 235.691 346.574 235.518 346.574ZM241.231 352.2C241.058 352.2 240.971 352.113 240.884 352.027C240.711 351.853 240.711 351.507 240.884 351.248L408.024 184.108C408.197 183.935 408.543 183.935 408.803 184.108C409.063 184.281 408.976 184.627 408.803 184.887L241.577 352.027C241.49 352.2 241.404 352.2 241.231 352.2Z" fill="#B7C8EC"/>
<path d="M253.263 326.752C253.09 326.752 253.003 326.666 252.917 326.579C252.744 326.406 252.744 326.06 252.917 325.8L420.057 158.66C420.23 158.487 420.576 158.487 420.836 158.66C421.095 158.833 421.009 159.18 420.836 159.439L253.609 326.579C253.523 326.752 253.35 326.752 253.263 326.752ZM258.889 332.465C258.716 332.465 258.63 332.378 258.543 332.292C258.37 332.119 258.37 331.772 258.543 331.513L425.683 164.373C425.856 164.2 426.202 164.2 426.462 164.373C426.721 164.546 426.635 164.892 426.462 165.152L259.322 332.292C259.149 332.378 259.062 332.465 258.889 332.465ZM264.602 338.091C264.429 338.091 264.342 338.004 264.256 337.918C264.083 337.745 264.083 337.398 264.256 337.139L431.395 169.999C431.569 169.826 431.915 169.826 432.174 169.999C432.348 170.172 432.348 170.519 432.174 170.778L264.948 337.918C264.862 338.091 264.689 338.091 264.602 338.091ZM270.228 343.804C270.055 343.804 269.968 343.717 269.882 343.631C269.709 343.457 269.709 343.111 269.882 342.852L437.022 175.712C437.195 175.539 437.541 175.539 437.801 175.712C437.974 175.885 437.974 176.231 437.801 176.491L270.661 343.631C270.488 343.717 270.401 343.804 270.228 343.804ZM275.941 349.43C275.768 349.43 275.681 349.343 275.595 349.257C275.422 349.084 275.422 348.737 275.595 348.478L442.734 181.338C442.907 181.165 443.254 181.165 443.513 181.338C443.773 181.511 443.686 181.857 443.513 182.117L276.287 349.257C276.201 349.43 276.027 349.43 275.941 349.43ZM281.567 355.142C281.394 355.142 281.307 355.056 281.221 354.969C281.048 354.796 281.048 354.45 281.221 354.19L448.36 187.051C448.534 186.878 448.88 186.878 449.139 187.051C449.399 187.224 449.313 187.57 449.139 187.83L282 354.969C281.827 355.056 281.74 355.142 281.567 355.142ZM287.28 360.769C287.107 360.769 287.02 360.682 286.933 360.596C286.76 360.422 286.76 360.076 286.933 359.816L454.073 192.677C454.246 192.504 454.592 192.504 454.852 192.677C455.025 192.85 455.025 193.196 454.852 193.456L287.626 360.596C287.539 360.682 287.366 360.769 287.28 360.769ZM292.906 366.481C292.733 366.481 292.646 366.395 292.56 366.308C292.386 366.135 292.386 365.789 292.56 365.529L459.699 198.39C459.872 198.216 460.219 198.216 460.478 198.39C460.651 198.563 460.651 198.909 460.478 199.169L293.339 366.308C293.165 366.395 293.079 366.481 292.906 366.481ZM298.619 372.107C298.445 372.107 298.359 372.021 298.272 371.934C298.099 371.761 298.099 371.415 298.272 371.155L465.412 204.016C465.585 203.843 465.931 203.843 466.191 204.016C466.451 204.189 466.364 204.535 466.191 204.795L298.965 371.934C298.878 372.021 298.705 372.107 298.619 372.107ZM304.245 377.82C304.072 377.82 303.985 377.734 303.898 377.647C303.725 377.474 303.725 377.128 303.898 376.868L471.038 209.728C471.211 209.555 471.557 209.555 471.817 209.728C472.077 209.902 471.99 210.248 471.817 210.507L304.677 377.647C304.504 377.734 304.418 377.82 304.245 377.82ZM309.957 383.446C309.784 383.446 309.698 383.36 309.611 383.273C309.438 383.1 309.438 382.754 309.611 382.494L476.751 215.355C476.924 215.181 477.27 215.181 477.53 215.355C477.789 215.528 477.703 215.874 477.53 216.134L310.304 383.273C310.217 383.36 310.044 383.446 309.957 383.446ZM315.583 389.159C315.41 389.159 315.324 389.072 315.237 388.986C315.064 388.813 315.064 388.467 315.237 388.207L482.377 221.067C482.55 220.894 482.896 220.894 483.156 221.067C483.329 221.24 483.329 221.587 483.156 221.846L315.93 388.986C315.843 389.072 315.757 389.159 315.583 389.159ZM321.296 394.785C321.123 394.785 321.037 394.699 320.95 394.612C320.777 394.439 320.777 394.093 320.95 393.833L488.09 226.693C488.263 226.52 488.609 226.52 488.869 226.693C489.128 226.866 489.042 227.213 488.869 227.472L321.642 394.612C321.556 394.699 321.383 394.785 321.296 394.785ZM326.922 400.411C326.749 400.411 326.663 400.325 326.576 400.238C326.403 400.065 326.403 399.719 326.576 399.459L493.716 232.32C493.889 232.146 494.235 232.146 494.495 232.32C494.754 232.493 494.668 232.839 494.495 233.099L327.269 400.325C327.182 400.411 327.095 400.411 326.922 400.411ZM332.635 406.124C332.462 406.124 332.375 406.037 332.289 405.951C332.116 405.778 332.116 405.432 332.289 405.172L499.342 238.032C499.515 237.859 499.861 237.859 500.121 238.032C500.381 238.205 500.294 238.552 500.121 238.811L332.981 405.951C332.895 406.037 332.722 406.124 332.635 406.124ZM338.261 411.75C338.088 411.75 338.002 411.664 337.915 411.577C337.742 411.404 337.742 411.058 337.915 410.798L505.055 243.658C505.228 243.485 505.574 243.485 505.834 243.658C506.007 243.831 506.007 244.178 505.834 244.437L338.607 411.664C338.521 411.75 338.434 411.75 338.261 411.75ZM343.887 417.463C343.714 417.463 343.628 417.376 343.541 417.29C343.368 417.117 343.368 416.77 343.541 416.511L510.681 249.371C510.854 249.198 511.2 249.198 511.46 249.371C511.719 249.544 511.633 249.89 511.46 250.15L344.32 417.29C344.234 417.376 344.06 417.463 343.887 417.463ZM349.6 423.089C349.427 423.089 349.34 423.002 349.254 422.916C349.081 422.743 349.081 422.396 349.254 422.137L516.393 254.997C516.567 254.824 516.913 254.824 517.172 254.997C517.432 255.17 517.346 255.517 517.172 255.776L349.946 423.002C349.86 423.089 349.773 423.089 349.6 423.089ZM355.226 428.802C355.053 428.802 354.966 428.715 354.88 428.629C354.707 428.455 354.707 428.109 354.88 427.85L522.02 260.71C522.193 260.537 522.539 260.537 522.799 260.71C523.058 260.883 522.972 261.229 522.799 261.489L355.659 428.629C355.572 428.715 355.399 428.802 355.226 428.802Z" fill="#B7C8EC"/>
<path d="M416.854 215.181V393.833C416.854 404.046 408.544 412.269 398.417 412.269L307.62 412.183C301.474 412.183 296.714 417.376 297.32 423.695C297.839 429.148 302.686 433.043 308.139 433.043H339.213C345.358 433.043 350.205 438.236 349.6 444.555C349.08 450.008 344.147 453.903 338.694 453.903H183.499C178.046 453.903 173.112 449.921 172.593 444.555C171.987 438.236 176.834 433.043 182.979 433.043H213.966C219.419 433.043 224.353 429.061 224.872 423.695C225.392 417.376 220.545 412.183 214.486 412.183L123.775 412.356C113.561 412.356 105.252 404.046 105.252 393.833V215.181C105.252 204.968 113.561 196.745 123.688 196.745H398.331C408.544 196.745 416.854 204.968 416.854 215.181Z" fill="#506FFF"/>
<path d="M123.774 386.389C120.745 386.389 118.234 383.879 118.234 380.849V215.181C118.234 212.152 120.658 209.642 123.687 209.642H398.33C401.359 209.642 403.783 212.065 403.783 215.181V380.936C403.783 383.965 401.359 386.389 398.33 386.389H123.774Z" fill="#6A84FF"/>
<path d="M261.052 403.701C263.443 403.701 265.38 401.763 265.38 399.373C265.38 396.983 263.443 395.045 261.052 395.045C258.662 395.045 256.725 396.983 256.725 399.373C256.725 401.763 258.662 403.701 261.052 403.701Z" fill="white"/>
<path d="M418.326 353.411V329.002H404.044V353.411C397.812 356.181 393.484 362.327 393.484 369.511V436.418C393.484 446.199 401.361 454.076 411.142 454.076C420.923 454.076 428.799 446.199 428.799 436.418V369.511C428.799 362.327 424.471 356.095 418.326 353.411Z" fill="#FF6070"/>
<path d="M411.141 342.332C457.94 342.332 495.879 304.393 495.879 257.594C495.879 210.794 457.94 172.855 411.141 172.855C364.341 172.855 326.402 210.794 326.402 257.594C326.402 304.393 364.341 342.332 411.141 342.332Z" fill="white"/>
<path d="M411.142 327.704C372.538 327.704 341.031 296.284 341.031 257.594C341.031 218.903 372.451 187.483 411.142 187.483C449.832 187.483 481.252 218.903 481.252 257.594C481.252 296.284 449.832 327.704 411.142 327.704Z" fill="#48C5A1"/>
<path opacity="0.08" d="M248.762 452.172C252.397 445.68 252.137 437.63 248.156 431.398L180.036 323.03C178.193 320.101 175.64 317.684 172.614 316.005C169.587 314.325 166.186 313.437 162.725 313.422C155.628 313.422 149.136 316.971 145.414 323.03L105.252 386.908V393.833C105.252 404.047 113.561 412.356 123.775 412.356L214.572 412.269C220.631 412.269 225.478 417.463 224.959 423.781C224.44 429.148 219.419 433.129 214.053 433.129H183.066C176.92 433.129 172.073 438.323 172.679 444.641C173.198 450.094 178.132 453.989 183.585 453.989H247.55C247.983 453.47 248.416 452.864 248.762 452.172Z" fill="black"/>
<path d="M189.386 279.233H183.5V260.883C183.5 259.552 182.971 258.275 182.03 257.333C181.088 256.392 179.811 255.863 178.48 255.863C177.148 255.863 175.871 256.392 174.93 257.333C173.988 258.275 173.459 259.552 173.459 260.883V279.233H152.167L172.248 235.695C172.535 235.095 172.697 234.443 172.726 233.778C172.755 233.114 172.648 232.45 172.414 231.828C172.18 231.205 171.822 230.636 171.362 230.156C170.902 229.675 170.349 229.292 169.738 229.03C169.137 228.743 168.485 228.581 167.821 228.552C167.156 228.524 166.492 228.63 165.87 228.864C165.247 229.099 164.678 229.457 164.198 229.917C163.717 230.377 163.334 230.929 163.073 231.541L140.395 280.704C139.968 281.646 139.785 282.68 139.86 283.711C139.936 284.742 140.269 285.738 140.828 286.607C141.388 287.476 142.156 288.192 143.063 288.688C143.97 289.184 144.987 289.445 146.021 289.447H173.546V303.988C173.546 305.319 174.075 306.596 175.016 307.538C175.958 308.479 177.235 309.008 178.566 309.008C179.898 309.008 181.175 308.479 182.116 307.538C183.058 306.596 183.587 305.319 183.587 303.988V289.447H189.386C192.156 289.447 194.406 287.196 194.406 284.426C194.406 281.657 192.156 279.233 189.386 279.233ZM313.247 279.233H307.448V260.883C307.448 259.552 306.919 258.275 305.978 257.333C305.036 256.392 303.759 255.863 302.428 255.863C301.096 255.863 299.82 256.392 298.878 257.333C297.937 258.275 297.408 259.552 297.408 260.883V279.233H276.115L296.196 235.695C296.483 235.095 296.646 234.443 296.674 233.778C296.703 233.114 296.597 232.45 296.362 231.828C296.128 231.205 295.77 230.636 295.31 230.156C294.85 229.675 294.297 229.292 293.686 229.03C293.086 228.743 292.434 228.581 291.769 228.552C291.104 228.524 290.441 228.63 289.818 228.864C289.195 229.099 288.627 229.457 288.146 229.917C287.665 230.377 287.283 230.929 287.021 231.541L264.343 280.704C263.478 282.609 263.651 284.859 264.776 286.59C265.901 288.408 267.805 289.447 269.969 289.447H297.494V303.988C297.494 305.319 298.023 306.596 298.965 307.538C299.906 308.479 301.183 309.008 302.514 309.008C303.846 309.008 305.123 308.479 306.064 307.538C307.006 306.596 307.535 305.319 307.535 303.988V289.447H313.334C316.104 289.447 318.354 287.196 318.354 284.426C318.354 281.657 316.017 279.233 313.247 279.233ZM226.778 226.607C209.986 226.607 199.946 238.032 199.946 257.161V271.529C199.946 290.658 209.986 302.084 226.778 302.084C243.57 302.084 253.61 290.658 253.61 271.529V257.161C253.697 238.032 243.656 226.607 226.778 226.607ZM243.57 271.529C243.57 284.946 237.771 291.957 226.865 291.957C215.872 291.957 210.159 284.859 210.159 271.529V257.161C210.159 243.745 215.958 236.734 226.865 236.734C237.857 236.734 243.57 243.832 243.57 257.161V271.529ZM395.216 251.275C395.822 251.881 396.687 252.227 397.553 252.227C398.419 252.227 399.198 251.881 399.89 251.275C401.188 249.977 401.188 247.986 399.89 246.688L391.84 238.638L399.89 230.588C401.188 229.29 401.188 227.299 399.89 226.001C399.593 225.693 399.237 225.447 398.842 225.28C398.448 225.112 398.025 225.026 397.596 225.026C397.168 225.026 396.744 225.112 396.35 225.28C395.956 225.447 395.6 225.693 395.302 226.001L387.253 234.051L379.203 226.001C378.906 225.693 378.55 225.447 378.156 225.28C377.761 225.112 377.338 225.026 376.909 225.026C376.481 225.026 376.057 225.112 375.663 225.28C375.269 225.447 374.913 225.693 374.616 226.001C373.317 227.299 373.317 229.29 374.616 230.588L382.665 238.638L374.616 246.688C373.317 247.986 373.317 249.977 374.616 251.275C375.221 251.881 376.087 252.227 376.953 252.227C377.818 252.227 378.597 251.881 379.29 251.275L387.339 243.226L395.216 251.275ZM439.706 238.638L447.755 230.588C449.054 229.29 449.054 227.299 447.755 226.001C447.458 225.693 447.102 225.447 446.708 225.28C446.314 225.112 445.89 225.026 445.462 225.026C445.033 225.026 444.61 225.112 444.215 225.28C443.821 225.447 443.465 225.693 443.168 226.001L435.118 234.051L427.069 226.001C426.771 225.693 426.415 225.447 426.021 225.28C425.627 225.112 425.203 225.026 424.775 225.026C424.347 225.026 423.923 225.112 423.529 225.28C423.134 225.447 422.778 225.693 422.481 226.001C421.183 227.299 421.183 229.29 422.481 230.588L430.531 238.638L422.481 246.688C421.183 247.986 421.183 249.977 422.481 251.275C423.087 251.881 423.953 252.227 424.818 252.227C425.684 252.227 426.463 251.881 427.155 251.275L435.205 243.226L443.255 251.275C443.86 251.881 444.726 252.227 445.592 252.227C446.457 252.227 447.236 251.881 447.929 251.275C449.227 249.977 449.227 247.986 447.929 246.688L439.706 238.638ZM386.82 283.647C384.31 286.157 384.31 290.312 386.82 292.822C389.33 295.332 393.485 295.332 395.995 292.822C397.989 290.825 400.357 289.241 402.963 288.16C405.57 287.079 408.364 286.523 411.186 286.523C414.007 286.523 416.801 287.079 419.408 288.16C422.014 289.241 424.382 290.825 426.376 292.822C427.674 294.121 429.319 294.726 430.964 294.726C432.608 294.726 434.253 294.121 435.551 292.822C438.061 290.312 438.061 286.157 435.551 283.647C429.079 277.204 420.318 273.587 411.186 273.587C402.053 273.587 393.292 277.204 386.82 283.647Z" fill="white"/>
<path d="M240.886 435.986L172.767 327.618C168.093 320.26 157.36 320.26 152.686 327.618L84.566 435.986C79.6323 443.862 85.2584 454.162 94.6065 454.162H230.846C240.194 454.076 245.82 443.862 240.886 435.986Z" fill="#F2BC19"/>
<path d="M162.725 356.441C157.185 356.441 152.771 361.115 153.03 366.654L155.454 414C155.627 417.895 158.83 420.925 162.725 420.925C166.62 420.925 169.822 417.895 169.995 414L172.419 366.654C172.49 365.338 172.291 364.022 171.836 362.785C171.38 361.548 170.677 360.417 169.77 359.461C168.863 358.505 167.77 357.744 166.559 357.225C165.347 356.706 164.043 356.439 162.725 356.441Z" fill="white"/>
<path d="M162.725 443.256C166.55 443.256 169.65 440.156 169.65 436.332C169.65 432.507 166.55 429.407 162.725 429.407C158.901 429.407 155.801 432.507 155.801 436.332C155.801 440.156 158.901 443.256 162.725 443.256Z" fill="white"/>
</svg>
