<svg width="280" height="64" viewBox="0 0 280 64" fill="none" xmlns="http://www.w3.org/2000/svg">
<path d="M33.649 12L38.689 0.799999H40.737L45.793 12H43.617L39.281 1.904H40.113L35.793 12H33.649ZM35.969 9.408L36.529 7.776H42.577L43.137 9.408H35.969ZM48.2465 12V0.799999H58.1505V12H56.1025V2.048L56.5825 2.56H49.8145L50.2945 2.048V12H48.2465ZM62.0446 12V0.799999H71.9486V12H69.9006V2.048L70.3806 2.56H63.6126L64.0926 2.048V12H62.0446ZM74.4027 12L79.4427 0.799999H81.4907L86.5467 12H84.3707L80.0347 1.904H80.8667L76.5467 12H74.4027ZM76.7227 9.408L77.2827 7.776H83.3307L83.8907 9.408H76.7227ZM88.9842 12V0.799999H93.5922C94.5842 0.799999 95.4322 0.959999 96.1362 1.28C96.8509 1.6 97.4002 2.05867 97.7842 2.656C98.1682 3.25333 98.3602 3.96267 98.3602 4.784C98.3602 5.60533 98.1682 6.31467 97.7842 6.912C97.4002 7.50933 96.8509 7.968 96.1362 8.288C95.4322 8.608 94.5842 8.768 93.5922 8.768H90.1362L91.0642 7.792V12H88.9842ZM91.0642 8.016L90.1362 7.008H93.4962C94.4136 7.008 95.1016 6.816 95.5602 6.432C96.0296 6.03733 96.2642 5.488 96.2642 4.784C96.2642 4.06933 96.0296 3.52 95.5602 3.136C95.1016 2.752 94.4136 2.56 93.4962 2.56H90.1362L91.0642 1.536V8.016ZM102.968 5.456H108.536V7.168H102.968V5.456ZM103.128 10.256H109.448V12H101.048V0.799999H109.224V2.544H103.128V10.256ZM112.279 12.16C112.097 12.16 111.916 12.144 111.735 12.112C111.553 12.08 111.356 12.0427 111.143 12L111.287 10.192C111.436 10.2347 111.596 10.256 111.767 10.256C112.215 10.256 112.572 10.0747 112.839 9.712C113.105 9.33867 113.297 8.79467 113.415 8.08C113.532 7.36533 113.612 6.48533 113.655 5.44L113.815 0.799999H122.055V12H120.007V2.048L120.487 2.56H115.159L115.607 2.032L115.495 5.36C115.463 6.46933 115.388 7.44533 115.271 8.288C115.153 9.13067 114.972 9.84 114.727 10.416C114.492 10.9813 114.177 11.4133 113.783 11.712C113.388 12.0107 112.887 12.16 112.279 12.16ZM131.093 4.592C132.427 4.592 133.456 4.89067 134.181 5.488C134.907 6.08533 135.269 6.98133 135.269 8.176C135.269 9.43467 134.869 10.3893 134.069 11.04C133.28 11.68 132.176 12 130.757 12H125.941V0.799999H127.989V4.592H131.093ZM130.661 10.4C131.461 10.4 132.08 10.2133 132.517 9.84C132.965 9.46667 133.189 8.92267 133.189 8.208C133.189 7.504 132.971 6.992 132.533 6.672C132.096 6.34133 131.472 6.176 130.661 6.176H127.989V10.4H130.661ZM143.272 12V0.799999H153.176V12H151.128V2.048L151.608 2.56H144.84L145.32 2.048V12H143.272ZM157.054 12V0.799999H161.662C162.654 0.799999 163.502 0.959999 164.206 1.28C164.921 1.6 165.47 2.05867 165.854 2.656C166.238 3.25333 166.43 3.96267 166.43 4.784C166.43 5.60533 166.238 6.31467 165.854 6.912C165.47 7.50933 164.921 7.968 164.206 8.288C163.502 8.608 162.654 8.768 161.662 8.768H158.206L159.134 7.792V12H157.054ZM159.134 8.016L158.206 7.008H161.566C162.484 7.008 163.172 6.816 163.63 6.432C164.1 6.03733 164.334 5.488 164.334 4.784C164.334 4.06933 164.1 3.52 163.63 3.136C163.172 2.752 162.484 2.56 161.566 2.56H158.206L159.134 1.536V8.016ZM174.474 12.16C173.6 12.16 172.794 12.016 172.058 11.728C171.322 11.44 170.682 11.04 170.138 10.528C169.594 10.0053 169.173 9.39733 168.874 8.704C168.576 8 168.426 7.232 168.426 6.4C168.426 5.568 168.576 4.80533 168.874 4.112C169.173 3.408 169.594 2.8 170.138 2.288C170.682 1.76533 171.322 1.36 172.058 1.072C172.794 0.783999 173.594 0.639999 174.458 0.639999C175.333 0.639999 176.133 0.783999 176.858 1.072C177.594 1.36 178.234 1.76533 178.778 2.288C179.322 2.8 179.744 3.408 180.042 4.112C180.341 4.80533 180.49 5.568 180.49 6.4C180.49 7.232 180.341 8 180.042 8.704C179.744 9.408 179.322 10.016 178.778 10.528C178.234 11.04 177.594 11.44 176.858 11.728C176.133 12.016 175.338 12.16 174.474 12.16ZM174.458 10.336C175.024 10.336 175.546 10.24 176.026 10.048C176.506 9.856 176.922 9.584 177.274 9.232C177.626 8.86933 177.898 8.45333 178.09 7.984C178.293 7.504 178.394 6.976 178.394 6.4C178.394 5.824 178.293 5.30133 178.09 4.832C177.898 4.352 177.626 3.936 177.274 3.584C176.922 3.22133 176.506 2.944 176.026 2.752C175.546 2.56 175.024 2.464 174.458 2.464C173.893 2.464 173.37 2.56 172.89 2.752C172.421 2.944 172.005 3.22133 171.642 3.584C171.29 3.936 171.013 4.352 170.81 4.832C170.618 5.30133 170.522 5.824 170.522 6.4C170.522 6.96533 170.618 7.488 170.81 7.968C171.013 8.448 171.29 8.86933 171.642 9.232C171.994 9.584 172.41 9.856 172.89 10.048C173.37 10.24 173.893 10.336 174.458 10.336ZM190.637 11.04V2.56H186.253L186.173 4.544C186.141 5.29067 186.093 6 186.029 6.672C185.976 7.33333 185.885 7.936 185.757 8.48C185.64 9.024 185.475 9.47733 185.261 9.84C185.048 10.2027 184.787 10.4427 184.477 10.56L182.237 10.24C182.643 10.2613 182.973 10.1227 183.229 9.824C183.496 9.52533 183.704 9.10933 183.853 8.576C184.003 8.04267 184.115 7.41867 184.189 6.704C184.264 5.97867 184.317 5.19467 184.349 4.352L184.477 0.799999H192.685V11.04H190.637ZM181.853 14.384L181.869 10.24H194.301V14.384H192.381V12H183.789V14.384H181.853ZM197.14 10.24C197.727 10.4427 198.244 10.496 198.692 10.4C199.14 10.304 199.54 9.97867 199.892 9.424L200.436 8.576L200.644 8.352L204.548 0.799999H206.596L201.732 9.84C201.337 10.5973 200.868 11.1733 200.324 11.568C199.78 11.9627 199.193 12.1813 198.564 12.224C197.945 12.2773 197.3 12.16 196.628 11.872L197.14 10.24ZM200.596 10.144L195.604 0.799999H197.828L201.732 8.544L200.596 10.144ZM216.17 12L212.378 6.544L214.058 5.504L218.522 12H216.17ZM208.762 12V0.799999H210.81V12H208.762ZM210.186 7.28V5.488H213.962V7.28H210.186ZM214.25 6.64L212.346 6.384L216.17 0.799999H218.378L214.25 6.64ZM222.897 12V2.048L223.393 2.56H219.201V0.799999H228.673V2.56H224.481L224.961 2.048V12H222.897ZM236.355 4.592C237.688 4.592 238.717 4.89067 239.443 5.488C240.168 6.08533 240.531 6.98133 240.531 8.176C240.531 9.43467 240.131 10.3893 239.331 11.04C238.541 11.68 237.437 12 236.019 12H231.203V0.799999H233.251V4.592H236.355ZM235.923 10.4C236.723 10.4 237.341 10.2133 237.779 9.84C238.227 9.46667 238.451 8.92267 238.451 8.208C238.451 7.504 238.232 6.992 237.795 6.672C237.357 6.34133 236.733 6.176 235.923 6.176H233.251V10.4H235.923ZM242.147 12V0.799999H244.195V12H242.147ZM1.97694 39.104C1.34761 38.1333 0.862272 37.0133 0.520939 35.744C0.190272 34.464 0.0249388 33.088 0.0249388 31.616C0.0249388 30.144 0.190272 28.768 0.520939 27.488C0.862272 26.1973 1.34761 25.0773 1.97694 24.128H3.88094C3.23027 25.3013 2.75027 26.5013 2.44094 27.728C2.14227 28.944 1.99294 30.24 1.99294 31.616C1.99294 32.992 2.14227 34.2933 2.44094 35.52C2.75027 36.736 3.23027 37.9307 3.88094 39.104H1.97694ZM6.53181 36V24.8H8.22781L13.1398 32.976H12.2278L17.0598 24.8H18.7558L18.7878 36H16.8038L16.7878 27.888H17.2038L13.1078 34.72H12.1798L8.01981 27.888H8.49981V36H6.53181ZM21.2181 36L26.2581 24.8H28.3061L33.3621 36H31.1861L26.8501 25.904H27.6821L23.3621 36H21.2181ZM23.5381 33.408L24.0981 31.776H30.1461L30.7061 33.408H23.5381ZM35.7996 36V24.8H40.4076C41.3996 24.8 42.2476 24.96 42.9516 25.28C43.6662 25.6 44.2156 26.0587 44.5996 26.656C44.9836 27.2533 45.1756 27.9627 45.1756 28.784C45.1756 29.6053 44.9836 30.3147 44.5996 30.912C44.2156 31.5093 43.6662 31.968 42.9516 32.288C42.2476 32.608 41.3996 32.768 40.4076 32.768H36.9516L37.8796 31.792V36H35.7996ZM37.8796 32.016L36.9516 31.008H40.3116C41.2289 31.008 41.9169 30.816 42.3756 30.432C42.8449 30.0373 43.0796 29.488 43.0796 28.784C43.0796 28.0693 42.8449 27.52 42.3756 27.136C41.9169 26.752 41.2289 26.56 40.3116 26.56H36.9516L37.8796 25.536V32.016ZM55.2713 36L51.4793 30.544L53.1593 29.504L57.6233 36H55.2713ZM47.8633 36V24.8H49.9113V36H47.8633ZM49.2873 31.28V29.488H53.0633V31.28H49.2873ZM53.3513 30.64L51.4473 30.384L55.2713 24.8H57.4793L53.3513 30.64ZM61.6752 29.456H67.2432V31.168H61.6752V29.456ZM61.8352 34.256H68.1552V36H59.7552V24.8H67.9312V26.544H61.8352V34.256ZM73.5459 36V26.048L74.0419 26.56H69.8499V24.8H79.3219V26.56H75.1299L75.6099 26.048V36H73.5459ZM81.8518 36V24.8H91.7558V36H89.7078V26.048L90.1878 26.56H83.4198L83.8998 26.048V36H81.8518ZM95.3166 36.16C95.1352 36.16 94.9539 36.144 94.7726 36.112C94.5912 36.08 94.3939 36.0427 94.1806 36L94.3246 34.192C94.4739 34.2347 94.6339 34.256 94.8046 34.256C95.2526 34.256 95.6099 34.0747 95.8766 33.712C96.1432 33.3387 96.3352 32.7947 96.4526 32.08C96.5699 31.3653 96.6499 30.4853 96.6926 29.44L96.8526 24.8H105.093V36H103.045V26.048L103.525 26.56H98.1966L98.6446 26.032L98.5326 29.36C98.5006 30.4693 98.4259 31.4453 98.3086 32.288C98.1912 33.1307 98.0099 33.84 97.7646 34.416C97.5299 34.9813 97.2152 35.4133 96.8206 35.712C96.4259 36.0107 95.9246 36.16 95.3166 36.16ZM110.883 29.456H116.451V31.168H110.883V29.456ZM111.043 34.256H117.363V36H108.963V24.8H117.139V26.544H111.043V34.256ZM120.418 36V24.8H122.466V32.752L128.482 24.8H130.418V36H128.37V28.064L122.354 36H120.418ZM125.394 24.048C124.434 24.048 123.709 23.8453 123.218 23.44C122.738 23.0347 122.493 22.464 122.482 21.728H123.938C123.949 22.1227 124.077 22.4267 124.322 22.64C124.578 22.8533 124.935 22.96 125.394 22.96C125.853 22.96 126.21 22.8533 126.466 22.64C126.733 22.4267 126.871 22.1227 126.882 21.728H128.322C128.311 22.464 128.061 23.0347 127.57 23.44C127.079 23.8453 126.354 24.048 125.394 24.048ZM139.43 36.16C138.577 36.16 137.782 36.0213 137.046 35.744C136.321 35.456 135.686 35.056 135.142 34.544C134.609 34.0213 134.193 33.408 133.894 32.704C133.596 32 133.446 31.232 133.446 30.4C133.446 29.568 133.596 28.8 133.894 28.096C134.193 27.392 134.614 26.784 135.158 26.272C135.702 25.7493 136.337 25.3493 137.062 25.072C137.788 24.784 138.582 24.64 139.446 24.64C140.364 24.64 141.201 24.8 141.958 25.12C142.716 25.4293 143.356 25.8933 143.878 26.512L142.534 27.776C142.129 27.3387 141.676 27.0133 141.174 26.8C140.673 26.576 140.129 26.464 139.542 26.464C138.956 26.464 138.417 26.56 137.926 26.752C137.446 26.944 137.025 27.216 136.662 27.568C136.31 27.92 136.033 28.336 135.83 28.816C135.638 29.296 135.542 29.824 135.542 30.4C135.542 30.976 135.638 31.504 135.83 31.984C136.033 32.464 136.31 32.88 136.662 33.232C137.025 33.584 137.446 33.856 137.926 34.048C138.417 34.24 138.956 34.336 139.542 34.336C140.129 34.336 140.673 34.2293 141.174 34.016C141.676 33.792 142.129 33.456 142.534 33.008L143.878 34.288C143.356 34.896 142.716 35.36 141.958 35.68C141.201 36 140.358 36.16 139.43 36.16ZM157.367 35.28C155.959 35.28 154.759 35.088 153.767 34.704C152.786 34.32 152.034 33.7653 151.511 33.04C150.989 32.304 150.727 31.4187 150.727 30.384C150.727 29.328 150.989 28.4373 151.511 27.712C152.034 26.9867 152.786 26.432 153.767 26.048C154.759 25.664 155.959 25.472 157.367 25.472C157.389 25.472 157.437 25.472 157.511 25.472C157.597 25.472 157.677 25.472 157.751 25.472C157.837 25.472 157.885 25.472 157.895 25.472C159.293 25.472 160.482 25.664 161.463 26.048C162.445 26.432 163.191 26.992 163.703 27.728C164.215 28.4533 164.471 29.3387 164.471 30.384C164.471 31.408 164.215 32.288 163.703 33.024C163.202 33.76 162.466 34.32 161.495 34.704C160.535 35.088 159.362 35.28 157.975 35.28C157.954 35.28 157.895 35.28 157.799 35.28C157.714 35.28 157.623 35.28 157.527 35.28C157.442 35.28 157.389 35.28 157.367 35.28ZM157.575 33.664C157.597 33.664 157.629 33.664 157.671 33.664C157.714 33.664 157.741 33.664 157.751 33.664C158.786 33.6533 159.65 33.5253 160.343 33.28C161.047 33.0347 161.575 32.672 161.927 32.192C162.29 31.7013 162.471 31.0933 162.471 30.368C162.471 29.6427 162.29 29.04 161.927 28.56C161.565 28.08 161.037 27.7173 160.343 27.472C159.65 27.2267 158.797 27.104 157.783 27.104C157.773 27.104 157.741 27.104 157.687 27.104C157.634 27.104 157.597 27.104 157.575 27.104C156.519 27.104 155.629 27.2267 154.903 27.472C154.189 27.7067 153.65 28.0693 153.287 28.56C152.935 29.04 152.759 29.648 152.759 30.384C152.759 31.12 152.946 31.7333 153.319 32.224C153.703 32.704 154.253 33.0667 154.967 33.312C155.682 33.5467 156.551 33.664 157.575 33.664ZM156.647 36.448V24.352H158.567V36.448H156.647ZM169.296 29.456H174.864V31.168H169.296V29.456ZM169.456 34.256H175.776V36H167.376V24.8H175.552V26.544H169.456V34.256ZM178.815 36V24.8H183.423C184.415 24.8 185.263 24.96 185.967 25.28C186.681 25.6 187.231 26.0587 187.615 26.656C187.999 27.2533 188.191 27.9627 188.191 28.784C188.191 29.6053 187.999 30.3147 187.615 30.912C187.231 31.5093 186.681 31.968 185.967 32.288C185.263 32.608 184.415 32.768 183.423 32.768H179.967L180.895 31.792V36H178.815ZM180.895 32.016L179.967 31.008H183.327C184.244 31.008 184.932 30.816 185.391 30.432C185.86 30.0373 186.095 29.488 186.095 28.784C186.095 28.0693 185.86 27.52 185.391 27.136C184.932 26.752 184.244 26.56 183.327 26.56H179.967L180.895 25.536V32.016ZM190.894 36V24.8H192.59L197.502 32.976H196.59L201.422 24.8H203.118L203.15 36H201.166L201.15 27.888H201.566L197.47 34.72H196.542L192.382 27.888H192.862V36H190.894ZM208.925 29.456H214.493V31.168H208.925V29.456ZM209.085 34.256H215.405V36H207.005V24.8H215.181V26.544H209.085V34.256ZM218.443 36V24.8H223.051C224.043 24.8 224.891 24.96 225.595 25.28C226.31 25.6 226.859 26.0587 227.243 26.656C227.627 27.2533 227.819 27.9627 227.819 28.784C227.819 29.6053 227.627 30.3147 227.243 30.912C226.859 31.5093 226.31 31.968 225.595 32.288C224.891 32.608 224.043 32.768 223.051 32.768H219.595L220.523 31.792V36H218.443ZM220.523 32.016L219.595 31.008H222.955C223.873 31.008 224.561 30.816 225.019 30.432C225.489 30.0373 225.723 29.488 225.723 28.784C225.723 28.0693 225.489 27.52 225.019 27.136C224.561 26.752 223.873 26.56 222.955 26.56H219.595L220.523 25.536V32.016ZM235.815 36.16C234.962 36.16 234.167 36.0213 233.431 35.744C232.706 35.456 232.071 35.056 231.527 34.544C230.994 34.0213 230.578 33.408 230.279 32.704C229.981 32 229.831 31.232 229.831 30.4C229.831 29.568 229.981 28.8 230.279 28.096C230.578 27.392 230.999 26.784 231.543 26.272C232.087 25.7493 232.722 25.3493 233.447 25.072C234.173 24.784 234.967 24.64 235.831 24.64C236.749 24.64 237.586 24.8 238.343 25.12C239.101 25.4293 239.741 25.8933 240.263 26.512L238.919 27.776C238.514 27.3387 238.061 27.0133 237.559 26.8C237.058 26.576 236.514 26.464 235.927 26.464C235.341 26.464 234.802 26.56 234.311 26.752C233.831 26.944 233.41 27.216 233.047 27.568C232.695 27.92 232.418 28.336 232.215 28.816C232.023 29.296 231.927 29.824 231.927 30.4C231.927 30.976 232.023 31.504 232.215 31.984C232.418 32.464 232.695 32.88 233.047 33.232C233.41 33.584 233.831 33.856 234.311 34.048C234.802 34.24 235.341 34.336 235.927 34.336C236.514 34.336 237.058 34.2293 237.559 34.016C238.061 33.792 238.514 33.456 238.919 33.008L240.263 34.288C239.741 34.896 239.101 35.36 238.343 35.68C237.586 36 236.743 36.16 235.815 36.16ZM250.323 36L246.531 30.544L248.211 29.504L252.675 36H250.323ZM242.915 36V24.8H244.963V36H242.915ZM244.339 31.28V29.488H248.115V31.28H244.339ZM248.403 30.64L246.499 30.384L250.323 24.8H252.531L248.403 30.64ZM259.975 36.16C259.101 36.16 258.295 36.016 257.559 35.728C256.823 35.44 256.183 35.04 255.639 34.528C255.095 34.0053 254.674 33.3973 254.375 32.704C254.077 32 253.927 31.232 253.927 30.4C253.927 29.568 254.077 28.8053 254.375 28.112C254.674 27.408 255.095 26.8 255.639 26.288C256.183 25.7653 256.823 25.36 257.559 25.072C258.295 24.784 259.095 24.64 259.959 24.64C260.834 24.64 261.634 24.784 262.359 25.072C263.095 25.36 263.735 25.7653 264.279 26.288C264.823 26.8 265.245 27.408 265.543 28.112C265.842 28.8053 265.991 29.568 265.991 30.4C265.991 31.232 265.842 32 265.543 32.704C265.245 33.408 264.823 34.016 264.279 34.528C263.735 35.04 263.095 35.44 262.359 35.728C261.634 36.016 260.839 36.16 259.975 36.16ZM259.959 34.336C260.525 34.336 261.047 34.24 261.527 34.048C262.007 33.856 262.423 33.584 262.775 33.232C263.127 32.8693 263.399 32.4533 263.591 31.984C263.794 31.504 263.895 30.976 263.895 30.4C263.895 29.824 263.794 29.3013 263.591 28.832C263.399 28.352 263.127 27.936 262.775 27.584C262.423 27.2213 262.007 26.944 261.527 26.752C261.047 26.56 260.525 26.464 259.959 26.464C259.394 26.464 258.871 26.56 258.391 26.752C257.922 26.944 257.506 27.2213 257.143 27.584C256.791 27.936 256.514 28.352 256.311 28.832C256.119 29.3013 256.023 29.824 256.023 30.4C256.023 30.9653 256.119 31.488 256.311 31.968C256.514 32.448 256.791 32.8693 257.143 33.232C257.495 33.584 257.911 33.856 258.391 34.048C258.871 34.24 259.394 34.336 259.959 34.336ZM269.027 36V24.8H271.075V32.752L277.091 24.8H279.027V36H276.979V28.064L270.963 36H269.027ZM274.003 24.048C273.043 24.048 272.317 23.8453 271.827 23.44C271.347 23.0347 271.101 22.464 271.091 21.728H272.547C272.557 22.1227 272.685 22.4267 272.931 22.64C273.187 22.8533 273.544 22.96 274.003 22.96C274.461 22.96 274.819 22.8533 275.075 22.64C275.341 22.4267 275.48 22.1227 275.491 21.728H276.931C276.92 22.464 276.669 23.0347 276.179 23.44C275.688 23.8453 274.963 24.048 274.003 24.048ZM79.1956 60V48.8H89.0996V60H87.0516V50.048L87.5316 50.56H80.7636L81.2436 50.048V60H79.1956ZM92.9777 60V48.8H97.5857C98.5777 48.8 99.4257 48.96 100.13 49.28C100.844 49.6 101.394 50.0587 101.778 50.656C102.162 51.2533 102.354 51.9627 102.354 52.784C102.354 53.6053 102.162 54.3147 101.778 54.912C101.394 55.5093 100.844 55.968 100.13 56.288C99.4257 56.608 98.5777 56.768 97.5857 56.768H94.1297L95.0577 55.792V60H92.9777ZM95.0577 56.016L94.1297 55.008H97.4897C98.407 55.008 99.095 54.816 99.5537 54.432C100.023 54.0373 100.258 53.488 100.258 52.784C100.258 52.0693 100.023 51.52 99.5537 51.136C99.095 50.752 98.407 50.56 97.4897 50.56H94.1297L95.0577 49.536V56.016ZM110.398 60.16C109.523 60.16 108.718 60.016 107.982 59.728C107.246 59.44 106.606 59.04 106.062 58.528C105.518 58.0053 105.096 57.3973 104.798 56.704C104.499 56 104.35 55.232 104.35 54.4C104.35 53.568 104.499 52.8053 104.798 52.112C105.096 51.408 105.518 50.8 106.062 50.288C106.606 49.7653 107.246 49.36 107.982 49.072C108.718 48.784 109.518 48.64 110.382 48.64C111.256 48.64 112.056 48.784 112.782 49.072C113.518 49.36 114.158 49.7653 114.702 50.288C115.246 50.8 115.667 51.408 115.966 52.112C116.264 52.8053 116.414 53.568 116.414 54.4C116.414 55.232 116.264 56 115.966 56.704C115.667 57.408 115.246 58.016 114.702 58.528C114.158 59.04 113.518 59.44 112.782 59.728C112.056 60.016 111.262 60.16 110.398 60.16ZM110.382 58.336C110.947 58.336 111.47 58.24 111.95 58.048C112.43 57.856 112.846 57.584 113.198 57.232C113.55 56.8693 113.822 56.4533 114.014 55.984C114.216 55.504 114.318 54.976 114.318 54.4C114.318 53.824 114.216 53.3013 114.014 52.832C113.822 52.352 113.55 51.936 113.198 51.584C112.846 51.2213 112.43 50.944 111.95 50.752C111.47 50.56 110.947 50.464 110.382 50.464C109.816 50.464 109.294 50.56 108.814 50.752C108.344 50.944 107.928 51.2213 107.566 51.584C107.214 51.936 106.936 52.352 106.734 52.832C106.542 53.3013 106.446 53.824 106.446 54.4C106.446 54.9653 106.542 55.488 106.734 55.968C106.936 56.448 107.214 56.8693 107.566 57.232C107.918 57.584 108.334 57.856 108.814 58.048C109.294 58.24 109.816 58.336 110.382 58.336ZM126.561 59.04V50.56H122.177L122.097 52.544C122.065 53.2907 122.017 54 121.953 54.672C121.899 55.3333 121.809 55.936 121.681 56.48C121.563 57.024 121.398 57.4773 121.185 57.84C120.971 58.2027 120.71 58.4427 120.401 58.56L118.161 58.24C118.566 58.2613 118.897 58.1227 119.153 57.824C119.419 57.5253 119.627 57.1093 119.777 56.576C119.926 56.0427 120.038 55.4187 120.113 54.704C120.187 53.9787 120.241 53.1947 120.273 52.352L120.401 48.8H128.609V59.04H126.561ZM117.777 62.384L117.793 58.24H130.225V62.384H128.305V60H119.713V62.384H117.777ZM133.063 58.24C133.65 58.4427 134.167 58.496 134.615 58.4C135.063 58.304 135.463 57.9787 135.815 57.424L136.359 56.576L136.567 56.352L140.471 48.8H142.519L137.655 57.84C137.261 58.5973 136.791 59.1733 136.247 59.568C135.703 59.9627 135.117 60.1813 134.487 60.224C133.869 60.2773 133.223 60.16 132.551 59.872L133.063 58.24ZM136.519 58.144L131.527 48.8H133.751L137.655 56.544L136.519 58.144ZM152.094 60L148.302 54.544L149.982 53.504L154.446 60H152.094ZM144.686 60V48.8H146.734V60H144.686ZM146.11 55.28V53.488H149.886V55.28H146.11ZM150.174 54.64L148.27 54.384L152.094 48.8H154.302L150.174 54.64ZM156.594 60V48.8H158.642V58.24H164.29V48.8H166.354V60H156.594ZM166.098 62.464V59.488L166.562 60H164.29V58.24H168.018V62.464H166.098ZM170.657 60V48.8H172.705V56.752L178.721 48.8H180.657V60H178.609V52.064L172.593 60H170.657ZM184.534 60V48.8H186.582V56.752L192.598 48.8H194.534V60H192.486V52.064L186.47 60H184.534ZM199.082 63.104H197.178C197.839 61.9307 198.319 60.736 198.618 59.52C198.927 58.2933 199.082 56.992 199.082 55.616C199.082 54.24 198.927 52.944 198.618 51.728C198.319 50.5013 197.839 49.3013 197.178 48.128H199.082C199.722 49.0773 200.207 50.1973 200.538 51.488C200.869 52.768 201.034 54.144 201.034 55.616C201.034 57.088 200.869 58.464 200.538 59.744C200.207 61.0133 199.722 62.1333 199.082 63.104Z" fill="#2E2E2E"/>
</svg>
