<svg width="134" height="60" viewBox="0 0 134 60" fill="none" xmlns="http://www.w3.org/2000/svg">
<path d="M56.2819 0.244325C54.759 0.570058 52.7231 1.35182 51.3823 2.11729C50.1905 2.80133 47.9229 4.49514 47.9229 4.70687C47.9229 4.88602 49.8264 6.35182 50.803 6.93814L51.7465 7.49188L52.0279 6.987C52.9879 5.29319 54.1963 3.76224 55.9508 1.987C58.1027 -0.146554 58.1027 -0.146554 56.2819 0.244325Z" fill="#2E2E2E"/>
<path d="M62.6709 0.602591C64.4751 2.06839 66.9911 4.9837 67.8022 6.54721C67.9842 6.88923 68.1994 7.16611 68.2987 7.16611C68.5636 7.16611 70.7816 5.61888 71.3113 5.08142L71.7582 4.6091L70.9802 3.95764C69.2257 2.50813 67.6366 1.59608 65.6338 0.89575C64.6241 0.537444 62.4391 -1.52588e-05 62.0419 -1.52588e-05C61.9757 -1.52588e-05 62.2571 0.276858 62.6709 0.602591Z" fill="#2E2E2E"/>
<path d="M58.5664 1.2704C57.325 2.24759 55.7525 3.85997 54.7097 5.24434C53.6668 6.64499 52.922 7.91534 53.0875 8.06192C53.5179 8.48538 57.4574 9.44629 58.765 9.44629H59.5099V5.0489C59.5099 2.62219 59.4768 0.651503 59.4437 0.651503C59.4106 0.651503 59.0133 0.928375 58.5664 1.2704Z" fill="#2E2E2E"/>
<path d="M60.668 5.14658V9.49512L61.7108 9.38111C63.7302 9.1531 66.9579 8.14333 66.9579 7.73616C66.9579 7.39414 65.402 5.17916 64.2599 3.87622C63.3329 2.83388 61.6446 1.35179 60.8832 0.912055C60.7176 0.814336 60.668 1.7101 60.668 5.14658Z" fill="#2E2E2E"/>
<path d="M46.103 6.61237C44.1663 9.1368 42.627 13.2573 42.627 15.8958V16.6124L46.0533 16.5798L49.4797 16.5309L49.6783 14.8208C49.9101 12.8339 50.2577 11.2703 50.8205 9.7394L51.2177 8.6482L50.0259 7.9153C49.3638 7.52442 48.4369 6.85667 47.9569 6.4495C47.4603 6.04234 47.0134 5.70032 46.9306 5.70032C46.8644 5.70032 46.4837 6.10748 46.103 6.61237Z" fill="#2E2E2E"/>
<path d="M71.7579 6.36802C71.3441 6.72632 70.5164 7.34522 69.904 7.7361L68.8115 8.45271L69.275 9.64163C69.8212 11.0749 70.2185 12.7361 70.4833 14.9022L70.682 16.5309H73.8269H76.9719L76.9388 15.4723C76.8229 12.6221 75.3994 9.02274 73.4131 6.53088C73.049 6.07486 72.6848 5.70026 72.6186 5.70026C72.5524 5.70026 72.1717 6.00971 71.7579 6.36802Z" fill="#2E2E2E"/>
<path d="M67.1235 9.20194C65.9979 9.78826 63.1177 10.4886 61.3301 10.6189L60.7507 10.6677L60.7011 13.6319L60.668 16.6124H64.9551C67.5207 16.6124 69.2918 16.5472 69.358 16.4495C69.4905 16.2541 69.1594 13.6971 68.8449 12.4593C68.5801 11.4332 67.8187 9.28338 67.6366 9.08794C67.5869 9.03908 67.3552 9.08794 67.1235 9.20194Z" fill="#2E2E2E"/>
<path d="M51.7628 10.8631C51.1173 12.8827 50.9021 13.9576 50.8524 15.3908L50.8193 16.5309H55.123H59.4266L59.4763 13.6481L59.5094 10.7654L58.5659 10.6677C56.7948 10.4885 55.454 10.2117 53.9974 9.75564C53.1863 9.49505 52.4746 9.28333 52.3918 9.28333C52.3256 9.28333 52.0442 9.99994 51.7628 10.8631Z" fill="#2E2E2E"/>
<path d="M42.627 18.3061C42.627 19.9348 43.3718 22.6058 44.4146 24.6742C44.9112 25.6514 46.7154 28.3387 46.881 28.3387C46.9141 28.3387 47.5099 27.8827 48.2217 27.3289C48.9169 26.7915 49.8439 26.1237 50.2908 25.8631C50.7211 25.5862 51.0687 25.3419 51.0687 25.2931C51.0687 25.2442 50.837 24.495 50.5722 23.6481C50.059 22.1009 49.579 19.5276 49.579 18.355V17.7524H46.103H42.627V18.3061Z" fill="#2E2E2E"/>
<path d="M50.8207 17.9316C50.5724 18.3062 51.0359 21.0097 51.7311 23.2899C52.2277 24.886 52.1118 24.8371 53.8664 24.2671C54.7271 23.9902 56.3161 23.6319 57.4251 23.469L59.428 23.1922V20.5211V17.8338L55.174 17.785C52.1946 17.7524 50.8869 17.8013 50.8207 17.9316Z" fill="#2E2E2E"/>
<path d="M60.7838 17.8665C60.7176 17.9154 60.668 19.1695 60.668 20.619V23.2737L61.4625 23.3714C63.366 23.6157 65.1537 24.0229 66.362 24.4626C67.8683 25.0326 67.7524 25.0978 68.3649 23.29C68.878 21.7427 69.2256 20.2444 69.358 18.8437L69.4739 17.7525H65.1868C62.8198 17.7525 60.8335 17.8014 60.7838 17.8665Z" fill="#2E2E2E"/>
<path d="M70.5334 19.0065C70.3679 20.7166 69.9871 22.4756 69.4244 24.0554C69.1595 24.7883 68.9443 25.4397 68.9443 25.5212C68.9443 25.6026 69.4078 25.9609 69.9871 26.3355C70.5499 26.6938 71.3776 27.3127 71.8079 27.6873C72.7183 28.469 72.4866 28.583 73.8273 26.7752C74.6881 25.6189 75.6978 23.6645 76.2274 22.1498C76.5585 21.1889 77.0551 18.7459 77.0551 18.0293C77.0551 17.7687 76.7902 17.7524 73.8439 17.7524H70.6492L70.5334 19.0065Z" fill="#2E2E2E"/>
<path d="M57.3574 24.6742C56.0167 24.8859 53.5504 25.57 53.0869 25.8794C52.4248 26.2866 55.6856 30.6351 58.1354 32.6058C58.9465 33.2573 59.3769 33.5016 59.4265 33.355C59.4596 33.241 59.4927 31.2052 59.4596 28.8273C59.4265 23.8436 59.6583 24.3159 57.3574 24.6742Z" fill="#2E2E2E"/>
<path d="M60.7335 24.658C60.6011 25.0326 60.5846 33.3876 60.7335 33.3876C61.1639 33.3876 64.2096 30.5049 65.3186 29.0391C65.9807 28.1596 67.1228 26.3844 67.1228 26.2052C67.1228 26.0586 65.0372 25.2932 63.8951 25C62.3226 24.6091 60.8163 24.4463 60.7335 24.658Z" fill="#2E2E2E"/>
<path d="M50.886 26.9869C50.0087 27.508 48.4197 28.6807 48.0886 29.0716C47.8735 29.3321 47.9231 29.4299 48.5852 29.9999C50.6543 31.7589 53.3027 33.0944 56.0835 33.7133C56.9773 33.9087 57.7388 34.0553 57.7719 34.0064C57.805 33.9738 57.4739 33.6481 57.0105 33.3061C55.5538 32.166 53.6337 29.8696 52.293 27.6546L51.6309 26.5634L50.886 26.9869Z" fill="#2E2E2E"/>
<path d="M68.1173 27.0032C68.1173 27.1661 66.909 29.0065 66.1973 29.9348C65.4358 30.912 64.1944 32.2312 63.1681 33.127C62.175 33.9902 62.3074 34.039 64.1447 33.5342C66.5283 32.8827 69.1767 31.482 71.014 29.9022L71.6761 29.3322L71.2623 28.8925C71.0306 28.6644 70.3354 28.1107 69.7064 27.671C68.6305 26.9218 68.1173 26.71 68.1173 27.0032Z" fill="#2E2E2E"/>
<path d="M122.574 39.4138C122.574 39.4952 122.674 39.5767 122.806 39.5767C123.137 39.5767 123.236 40.0978 123.236 41.8568C123.236 43.6158 123.137 44.1369 122.806 44.1369C122.674 44.1369 122.574 44.2021 122.574 44.2998C122.574 44.3812 122.938 44.4627 123.402 44.4627H124.213L125.206 42.6223C126.679 39.8698 126.696 39.8698 126.696 41.5311C126.712 43.29 126.563 44.1369 126.282 44.1369C126.15 44.1369 126.05 44.2021 126.05 44.2998C126.05 44.3975 126.547 44.4627 127.209 44.4627C128.318 44.4627 128.748 44.2672 128.037 44.0881C127.722 44.0066 127.706 43.8601 127.706 41.8568C127.706 39.8535 127.722 39.707 128.037 39.6255C128.666 39.4627 128.368 39.2509 127.49 39.2509H126.63L125.504 41.3682C124.875 42.5246 124.345 43.4855 124.296 43.4855C124.263 43.4855 124.229 42.6386 124.229 41.5962C124.229 39.8535 124.246 39.707 124.561 39.6255C125.272 39.4464 124.842 39.2509 123.733 39.2509C123.071 39.2509 122.574 39.3161 122.574 39.4138Z" fill="#2E2E2E"/>
<path d="M128.7 39.9024C128.7 40.5864 128.965 40.8145 129.064 40.1793C129.114 39.8698 129.23 39.821 129.909 39.7721L130.686 39.7232V41.4171C130.686 43.404 130.571 44.1369 130.256 44.1369C130.124 44.1369 130.024 44.2021 130.024 44.2998C130.024 44.3975 130.521 44.4627 131.183 44.4627C132.292 44.4627 132.722 44.2672 132.011 44.0881C131.696 44.0066 131.68 43.8601 131.68 41.8731V39.7395H132.425C133.103 39.7395 133.169 39.7721 133.169 40.1467C133.169 40.3747 133.252 40.5539 133.335 40.5539C133.434 40.5539 133.5 40.2607 133.5 39.9024V39.2509H131.1H128.7V39.9024Z" fill="#2E2E2E"/>
<path d="M8.13072 44.6579C7.9983 44.951 6.69065 48.1758 5.23402 51.8077L2.55251 58.4201L1.52626 58.5667C0.533105 58.7132 0.5 58.7295 0.5 59.2018V59.6904H3.1484H5.79681V59.2018C5.79681 58.7458 5.74715 58.7132 5.00229 58.5992C4.55537 58.5341 4.15811 58.4689 4.125 58.4201C4.0919 58.3875 4.42295 57.4592 4.86987 56.3354L5.68094 54.3159L8.14727 54.267L10.6136 54.2344L11.3419 56.2051C11.7557 57.2963 12.1033 58.2409 12.1364 58.3061C12.1695 58.3712 11.7723 58.4852 11.2757 58.5341C10.2494 58.6644 10.1005 58.7947 10.2494 59.381L10.3488 59.7719L13.4606 59.7393L16.556 59.6904V59.2018C16.556 58.7295 16.5229 58.7132 15.5794 58.5504L14.6028 58.3875L14.1889 57.3289C13.9738 56.7426 13.5103 55.5048 13.1627 54.5602C11.4412 49.8859 9.47147 44.6742 9.33905 44.4136C9.25629 44.267 8.99145 44.1367 8.75971 44.1367C8.44521 44.1367 8.29624 44.267 8.13072 44.6579ZM8.89213 49.609C9.78597 52.0032 10.0177 52.6546 10.0177 52.8012C10.0177 52.8663 9.20663 52.9315 8.19693 52.9315C6.85617 52.9315 6.37615 52.8826 6.37615 52.7198C6.37615 52.3289 8.11416 48.2084 8.26314 48.2572C8.3459 48.2898 8.62729 48.8924 8.89213 49.609Z" fill="#2E2E2E"/>
<path d="M59.6087 44.2833C59.5425 44.381 58.6818 46.482 57.6721 48.9739C56.6624 51.4657 55.3878 54.609 54.8416 55.9608L53.8319 58.4364L52.8222 58.5667C51.8456 58.7133 51.8125 58.7296 51.8125 59.2019V59.6905H54.4609H57.1093V59.2019C57.1093 58.7458 57.0597 58.7133 56.3148 58.5993C55.8679 58.5341 55.4706 58.4527 55.4375 58.4201C55.3878 58.3712 55.7189 57.4429 56.1658 56.3354L56.9934 54.3159L59.4101 54.267L61.8433 54.2182L62.1082 54.837C62.4061 55.5537 63.3165 57.9804 63.3662 58.2084C63.3827 58.2898 63.0186 58.4364 62.5385 58.5341C61.5123 58.7458 61.4295 58.8273 61.5619 59.3647L61.6613 59.7719L64.7731 59.7393L67.8685 59.6905V59.2019C67.8685 58.7458 67.8188 58.7133 66.9084 58.5504C66.3622 58.4527 65.8822 58.2735 65.7994 58.1432C65.7332 58.0129 65.2863 56.8403 64.8228 55.5374C64.3428 54.2344 63.8131 52.8012 63.631 52.3615C63.4655 51.9054 62.7041 49.9022 61.9426 47.8826C60.6681 44.4462 60.5522 44.2182 60.1384 44.1693C59.9067 44.1367 59.6584 44.1856 59.6087 44.2833ZM60.5026 50.4722C60.9495 51.6611 61.3302 52.7035 61.3302 52.7849C61.3302 52.8664 60.5191 52.9315 59.5094 52.9315C58.1025 52.9315 57.6886 52.8826 57.6886 52.7198C57.6886 52.4266 59.1784 48.6807 59.3936 48.4038C59.4763 48.2898 59.5756 48.2247 59.6087 48.2572C59.6418 48.2898 60.0391 49.2833 60.5026 50.4722Z" fill="#2E2E2E"/>
<path d="M17.864 44.6905C17.6323 45.3094 17.864 45.5211 18.9234 45.6514L19.9496 45.798V52.1172V58.4364L18.8572 58.5504L17.7812 58.6644L17.8309 59.1856L17.8806 59.6905H21.0255H24.1705L24.2202 59.1856C24.2698 58.6807 24.2698 58.6807 23.2601 58.5667L22.267 58.4527L22.3001 52.1497L22.3497 45.8468H25.5775H28.8052L28.8549 52.1497L28.888 58.4364L27.8948 58.5504L26.9017 58.6644V59.2182V59.7719L30.0963 59.7393L33.2744 59.6905V59.2019C33.2744 58.7296 33.2413 58.7133 32.2482 58.583L31.2053 58.4364V52.1172V45.798L32.2482 45.6514C33.2413 45.5211 33.2744 45.5048 33.2744 45.0325V44.5439L25.6106 44.495C19.0392 44.4625 17.9468 44.495 17.864 44.6905Z" fill="#2E2E2E"/>
<path d="M35.244 44.6905C35.0123 45.3094 35.244 45.5211 36.3034 45.6514L37.3296 45.798V52.1009V58.4202L36.3034 58.5667C35.2937 58.7133 35.2606 58.7296 35.2606 59.2019V59.6905H38.4056H41.5505L41.6002 59.1856L41.6499 58.6645L40.6401 58.5505L39.647 58.4364L39.6801 52.1498L39.7298 45.8469H42.9575H46.1852L46.2349 52.1498L46.268 58.4364L45.2749 58.5505L44.2652 58.6645L44.3148 59.1856L44.3645 59.6905H47.5094H50.6544V59.2019C50.6544 58.7296 50.6213 58.7133 49.6282 58.583L48.5854 58.4364V52.1172V45.798L49.6282 45.6514C50.6213 45.5211 50.6544 45.5049 50.6544 45.0325V44.5439L42.9906 44.4951C36.4193 44.4625 35.3268 44.4951 35.244 44.6905Z" fill="#2E2E2E"/>
<path d="M69.1765 44.6742C68.9448 45.3094 69.1765 45.5211 70.2359 45.6514L71.2621 45.798V52.1172V58.4364L70.1697 58.5504L69.0938 58.6644L69.1434 59.1693L69.1931 59.6905L72.5532 59.7393L75.8968 59.7719V59.2182V58.6807L74.7382 58.5667L73.5795 58.4527V55.7654C73.5795 53.6481 73.6291 53.0944 73.7947 53.0944C73.9271 53.0944 74.4237 53.1758 74.9368 53.2735C76.9728 53.6807 80.0681 52.1986 80.8792 50.4071C81.5744 48.9087 81.0612 46.6449 79.8198 45.6677C78.5452 44.6742 78.0321 44.5765 73.4636 44.495C69.789 44.4299 69.2593 44.4625 69.1765 44.6742ZM76.7576 46.1237C79.3894 46.9054 79.3067 51.0423 76.6417 51.7752C76.2775 51.8729 75.4334 51.9543 74.7878 51.9543H73.5795V48.9739C73.5795 47.3289 73.6291 45.9283 73.7119 45.8631C73.8609 45.7002 75.9299 45.8794 76.7576 46.1237Z" fill="#2E2E2E"/>
<path d="M82.9149 44.6906C82.6832 45.3095 82.9149 45.5212 83.9743 45.6515L85.0005 45.7981V52.101V58.4203L83.9743 58.5668C82.9646 58.7134 82.9315 58.7297 82.9315 59.202V59.6906L88.6255 59.7395C93.0782 59.772 94.3527 59.7232 94.4686 59.5766C94.5348 59.4626 94.601 58.5831 94.601 57.6222C94.601 55.8958 94.601 55.8632 94.2037 55.7655C93.3761 55.5701 93.1775 55.7818 92.9292 57.1336L92.6975 58.3877H90.0491H87.4007V55.4561V52.5245L88.6918 52.4756C90.1815 52.4268 90.4629 52.5571 90.4629 53.3225C90.4629 54.3323 90.6284 54.5766 91.1912 54.5277L91.7043 54.4789V51.873V49.2672L91.3071 49.2183C90.7774 49.1369 90.5787 49.3812 90.4629 50.2932L90.3801 51.0587L88.8407 51.1075L87.3179 51.1564L87.351 48.5017L87.4007 45.847H89.8835H92.3664L92.4988 46.5799C92.8795 48.5831 92.8133 48.4528 93.5251 48.4528H94.1872V46.4984V44.544L88.5924 44.4952C83.8253 44.4626 82.9977 44.4952 82.9149 44.6906Z" fill="#2E2E2E"/>
<path d="M99.5661 45.0163V45.5537L100.725 45.6678L101.883 45.7818V46.7101C101.883 47.9642 101.453 51.8893 101.139 53.5668C100.99 54.316 100.675 55.3909 100.443 55.9609C99.7978 57.557 98.9868 57.9967 97.8777 57.3616L97.3812 57.0847L96.9343 57.6222C96.2887 58.355 96.0239 58.8925 96.1397 59.1857C96.3218 59.6254 97.2819 60 98.2419 60C101.221 59.9674 102.893 55.9446 103.324 47.7524L103.423 45.7492L105.095 45.798L106.766 45.8469V52.1173V58.3876L105.773 58.5505C104.813 58.7134 104.78 58.7459 104.78 59.202V59.6906L107.942 59.7394C110.772 59.772 111.12 59.7557 111.219 59.5114C111.451 58.9088 111.186 58.6645 110.16 58.5505L109.167 58.4365V52.1173V45.7818L110.143 45.6678C111.169 45.5537 111.418 45.3583 111.236 44.772C111.136 44.4788 110.838 44.4625 105.343 44.4625H99.5661V45.0163Z" fill="#2E2E2E"/>
<path d="M113.041 44.6905C112.809 45.3094 113.041 45.5211 114.1 45.6514L115.127 45.798V52.1009V58.4202L114.1 58.5667C113.091 58.7133 113.057 58.7296 113.057 59.2019V59.6905L116.12 59.7394C122.559 59.8371 124.611 58.9576 125.207 55.8306C125.604 53.7133 124.429 51.8404 122.211 51.0423C121.797 50.8794 120.672 50.7329 119.513 50.6677L117.527 50.57L117.477 48.1759L117.427 45.7817L118.586 45.6677C119.794 45.5537 120.076 45.342 119.827 44.7231C119.745 44.4951 119.331 44.4625 116.434 44.4625C113.703 44.4625 113.107 44.5114 113.041 44.6905ZM120.274 52.2149C121.565 52.5895 122.492 53.5505 122.658 54.6579C122.89 56.368 122.095 57.7524 120.622 58.1596C120.192 58.2736 119.331 58.3713 118.685 58.3713L117.527 58.3876L117.477 55.1628L117.444 51.9544H118.404C118.934 51.9544 119.778 52.0684 120.274 52.2149Z" fill="#2E2E2E"/>
</svg>
