<svg width="79" height="31" viewBox="0 0 79 31" fill="none" xmlns="http://www.w3.org/2000/svg">
<path d="M11.6101 0.418945C11.6309 0.418958 11.6509 0.42667 11.6665 0.440633L22.7873 10.4365C22.8002 10.4483 22.8092 10.4637 22.8134 10.4807C22.8175 10.4978 22.8164 10.5157 22.8104 10.5321C22.8042 10.5484 22.7934 10.5624 22.7792 10.5723C22.765 10.5823 22.7481 10.5875 22.7309 10.5875H0.495578C0.478337 10.5875 0.461506 10.5823 0.447315 10.5723C0.433123 10.5624 0.422243 10.5484 0.416124 10.5321C0.41005 10.5157 0.408998 10.4978 0.413107 10.4807C0.417217 10.4637 0.426296 10.4483 0.439165 10.4365L11.556 0.440633C11.571 0.427328 11.5901 0.419666 11.6101 0.418945ZM22.506 10.4148L11.6101 0.621384L0.724416 10.4148H22.506Z" fill="#8F8F8F" stroke="#8F8F8F" stroke-width="0.5" stroke-miterlimit="10"/>
<path d="M22.734 10.4146C22.7461 10.4146 22.758 10.4174 22.7689 10.4227C22.7843 10.4295 22.7973 10.4408 22.8064 10.4551C22.8154 10.4694 22.8201 10.4861 22.8198 10.503V30.4932C22.8201 30.5101 22.8154 30.5268 22.8064 30.5411C22.7973 30.5554 22.7843 30.5667 22.7689 30.5735C22.754 30.5804 22.7373 30.5827 22.7211 30.5801C22.7049 30.5775 22.6897 30.5702 22.6776 30.559L11.5559 20.5632C11.547 20.5551 11.5397 20.5452 11.5348 20.5341C11.5299 20.5231 11.5273 20.511 11.5273 20.4989C11.5273 20.4868 11.5299 20.4748 11.5348 20.4637C11.5397 20.4526 11.547 20.4427 11.5559 20.4346L22.6736 10.4363C22.6903 10.4218 22.7119 10.4141 22.734 10.4146ZM22.6489 30.3004V10.6934L11.745 20.4941L22.6489 30.3004Z" fill="#8F8F8F" stroke="#8F8F8F" stroke-width="0.5" stroke-miterlimit="10"/>
<path d="M0.495006 10.4147C0.515763 10.4149 0.535763 10.4226 0.551424 10.4364L11.6691 20.4331C11.6781 20.4411 11.6853 20.451 11.6902 20.4621C11.6951 20.4732 11.6976 20.4852 11.6976 20.4973C11.6976 20.5095 11.6951 20.5215 11.6902 20.5326C11.6853 20.5436 11.6781 20.5535 11.6691 20.5616L0.551424 30.5575C0.539299 30.5687 0.524158 30.5761 0.507896 30.5787C0.491637 30.5812 0.47499 30.5789 0.460045 30.572C0.444671 30.5651 0.431638 30.5539 0.422588 30.5395C0.413538 30.5252 0.408878 30.5086 0.409195 30.4916V10.5015C0.408878 10.4845 0.413538 10.4678 0.422588 10.4535C0.431638 10.4392 0.444671 10.4279 0.460045 10.4211C0.471069 10.4163 0.483025 10.4141 0.495006 10.4147ZM11.484 20.4973L0.580027 10.6966V30.3004L11.484 20.4973Z" fill="#8F8F8F" stroke="#8F8F8F" stroke-width="0.5" stroke-miterlimit="10"/>
<path d="M15.2828 3.68018C15.2977 3.68025 15.3124 3.6842 15.3253 3.69166C15.3382 3.69912 15.3491 3.70983 15.3567 3.72275C15.3641 3.73585 15.368 3.75066 15.368 3.76573C15.368 3.7808 15.3641 3.79562 15.3567 3.80871L11.6882 10.4338L22.8035 30.4504L22.6533 30.5356L11.592 10.613L0.567348 30.5356L0.417969 30.4553L11.4943 10.4386L7.83369 3.84486C7.82608 3.83185 7.82207 3.817 7.82207 3.80188C7.82207 3.78676 7.82608 3.77191 7.83369 3.7589C7.84119 3.74595 7.85187 3.73515 7.86464 3.72755C7.87745 3.71996 7.89198 3.71581 7.9068 3.71552L15.2804 3.685L15.2828 3.68018ZM11.5936 10.2571L15.1366 3.8537L8.05539 3.88342L11.5936 10.2571Z" fill="#8F8F8F" stroke="#8F8F8F" stroke-width="0.5" stroke-miterlimit="10"/>
<path d="M33.2243 19.2703V12.6748L33.4208 12.8759H30.8076V12.2325H36.3581V12.8759H33.7548L33.9414 12.6748V19.2703H33.2243ZM37.6341 19.2703V12.2325H40.4929C41.2197 12.2325 41.7894 12.3866 42.202 12.6949C42.6212 12.9966 42.8308 13.4423 42.8308 14.0321C42.8308 14.6153 42.631 15.0576 42.2315 15.3593C41.832 15.6542 41.3081 15.8016 40.6599 15.8016L40.8269 15.5503C41.593 15.5503 42.1758 15.7045 42.5753 16.0128C42.9748 16.3211 43.1746 16.7735 43.1746 17.3701C43.1746 17.9733 42.965 18.4425 42.5459 18.7776C42.1333 19.1061 41.5111 19.2703 40.6795 19.2703H37.6341ZM38.3513 18.6771H40.6795C41.2622 18.6771 41.7043 18.5665 42.0056 18.3453C42.3068 18.1241 42.4575 17.7823 42.4575 17.3198C42.4575 16.864 42.3068 16.5289 42.0056 16.3144C41.7043 16.0999 41.2622 15.9927 40.6795 15.9927H38.3513V18.6771ZM38.3513 15.4196H40.4536C40.9839 15.4196 41.3899 15.3124 41.6715 15.0979C41.9597 14.8767 42.1038 14.5516 42.1038 14.1226C42.1038 13.6936 41.9597 13.3719 41.6715 13.1574C41.3899 12.9362 40.9839 12.8256 40.4536 12.8256H38.3513V15.4196ZM48.0083 19.3306C47.4909 19.3306 47.0096 19.2435 46.5642 19.0692C46.1254 18.8882 45.7423 18.6369 45.4148 18.3152C45.0939 17.9867 44.8418 17.608 44.6584 17.1791C44.4816 16.7434 44.3932 16.2675 44.3932 15.7514C44.3932 15.2353 44.4816 14.7627 44.6584 14.3338C44.8418 13.8981 45.0939 13.5194 45.4148 13.1976C45.7423 12.8692 46.1254 12.6179 46.5642 12.4436C47.003 12.2626 47.4844 12.1721 48.0083 12.1721C48.5257 12.1721 49.0038 12.2626 49.4426 12.4436C49.8814 12.6179 50.2613 12.8659 50.5822 13.1876C50.9096 13.5093 51.1618 13.888 51.3386 14.3237C51.522 14.7594 51.6137 15.2353 51.6137 15.7514C51.6137 16.2675 51.522 16.7434 51.3386 17.1791C51.1618 17.6147 50.9096 17.9934 50.5822 18.3152C50.2613 18.6369 49.8814 18.8882 49.4426 19.0692C49.0038 19.2435 48.5257 19.3306 48.0083 19.3306ZM48.0083 18.6671C48.4209 18.6671 48.8008 18.5967 49.1479 18.4559C49.5016 18.3085 49.8061 18.104 50.0615 17.8426C50.3235 17.5745 50.5265 17.2662 50.6706 16.9176C50.8147 16.5624 50.8867 16.1736 50.8867 15.7514C50.8867 15.3291 50.8147 14.9437 50.6706 14.5952C50.5265 14.2399 50.3235 13.9316 50.0615 13.6702C49.8061 13.4021 49.5016 13.1976 49.1479 13.0569C48.8008 12.9094 48.4209 12.8357 48.0083 12.8357C47.5957 12.8357 47.2126 12.9094 46.8589 13.0569C46.5053 13.1976 46.1975 13.4021 45.9355 13.6702C45.6801 13.9316 45.4771 14.2399 45.3264 14.5952C45.1823 14.9437 45.1103 15.3291 45.1103 15.7514C45.1103 16.1669 45.1823 16.5524 45.3264 16.9076C45.4771 17.2628 45.6801 17.5745 45.9355 17.8426C46.1975 18.104 46.5053 18.3085 46.8589 18.4559C47.2126 18.5967 47.5957 18.6671 48.0083 18.6671ZM53.3484 19.2703V12.2325H54.0655V18.0638L58.4666 12.2325H59.1248V19.2703H58.4077V13.449L54.0066 19.2703H53.3484ZM56.217 11.7197C55.7258 11.7197 55.3361 11.6058 55.0479 11.3779C54.7663 11.15 54.6222 10.8316 54.6157 10.4227H55.156C55.1625 10.6908 55.2608 10.902 55.4507 11.0561C55.6472 11.2103 55.9026 11.2874 56.217 11.2874C56.5313 11.2874 56.7835 11.2103 56.9734 11.0561C57.1699 10.902 57.2714 10.6908 57.2779 10.4227H57.8182C57.8117 10.8316 57.6643 11.15 57.3762 11.3779C57.088 11.6058 56.7016 11.7197 56.217 11.7197ZM34.8649 29.3847C34.3475 29.3847 33.8694 29.2975 33.4306 29.1233C32.9918 28.9423 32.6119 28.6909 32.291 28.3692C31.9701 28.0475 31.718 27.6688 31.5346 27.2331C31.3578 26.7974 31.2693 26.3215 31.2693 25.8054C31.2693 25.2893 31.3578 24.8134 31.5346 24.3778C31.718 23.9421 31.9701 23.5634 32.291 23.2416C32.6185 22.9199 33.0016 22.6719 33.4404 22.4976C33.8792 22.3167 34.3573 22.2262 34.8747 22.2262C35.3724 22.2262 35.8407 22.3133 36.2795 22.4876C36.7183 22.6552 37.0883 22.9099 37.3896 23.2517L36.9279 23.7242C36.6463 23.4293 36.3352 23.2182 35.9946 23.0908C35.654 22.9568 35.2873 22.8898 34.8943 22.8898C34.4817 22.8898 34.0986 22.9635 33.7449 23.1109C33.3913 23.2517 33.0835 23.4561 32.8215 23.7242C32.5595 23.9856 32.3532 24.294 32.2026 24.6492C32.0585 24.9978 31.9865 25.3832 31.9865 25.8054C31.9865 26.2277 32.0585 26.6165 32.2026 26.9717C32.3532 27.3202 32.5595 27.6286 32.8215 27.8967C33.0835 28.1581 33.3913 28.3625 33.7449 28.51C34.0986 28.6507 34.4817 28.7211 34.8943 28.7211C35.2873 28.7211 35.654 28.6541 35.9946 28.52C36.3352 28.386 36.6463 28.1715 36.9279 27.8766L37.3896 28.3491C37.0883 28.6909 36.7183 28.949 36.2795 29.1233C35.8407 29.2975 35.3692 29.3847 34.8649 29.3847ZM40.17 29.3244V22.7289L40.3665 22.93H37.7534V22.2865H43.3039V22.93H40.7005L40.8872 22.7289V29.3244H40.17ZM43.2225 29.3244L46.3661 22.2865H47.0833L50.2269 29.3244H49.4606L46.5724 22.7188H46.8671L43.9789 29.3244H43.2225ZM44.4603 27.4442L44.6764 26.841H48.6747L48.8908 27.4442H44.4603ZM51.5449 29.3244V22.2865H54.1188C54.7016 22.2865 55.2027 22.3837 55.6218 22.5781C56.041 22.7658 56.3619 23.0406 56.5845 23.4025C56.8138 23.7578 56.9284 24.1901 56.9284 24.6995C56.9284 25.1955 56.8138 25.6245 56.5845 25.9864C56.3619 26.3416 56.041 26.6165 55.6218 26.8108C55.2027 27.0052 54.7016 27.1024 54.1188 27.1024H51.9477L52.2719 26.7505V29.3244H51.5449ZM52.2719 26.8108L51.9477 26.4489H54.0991C54.7868 26.4489 55.3074 26.2981 55.6611 25.9965C56.0213 25.6881 56.2014 25.2558 56.2014 24.6995C56.2014 24.1365 56.0213 23.7008 55.6611 23.3925C55.3074 23.0841 54.7868 22.93 54.0991 22.93H51.9477L52.2719 22.5781V26.8108ZM59.5489 29.3244V22.7289L59.7458 22.93H57.1326V22.2865H62.6831V22.93H60.0798L60.2664 22.7289V29.3244H59.5489ZM62.6016 29.3244L65.7453 22.2865H66.4624L69.606 29.3244H68.8398L65.9516 22.7188H66.2463L63.3581 29.3244H62.6016ZM63.8394 27.4442L64.0556 26.841H68.0539L68.27 27.4442H63.8394ZM70.9241 29.3244V22.2865H76.7103V29.3244H75.9932V22.7289L76.1798 22.93H71.4545L71.6412 22.7289V29.3244H70.9241Z" fill="#8F8F8F"/>
</svg>
