<svg width="140" height="63" viewBox="0 0 140 63" fill="none" xmlns="http://www.w3.org/2000/svg">
<path d="M58.7179 0.256276C57.115 0.598296 54.9718 1.41914 53.5605 2.22289C52.306 2.94113 49.9189 4.71963 49.9189 4.94194C49.9189 5.13005 51.9227 6.66914 52.9507 7.28478L53.9438 7.86621L54.24 7.33608C55.2506 5.55758 56.5226 3.95009 58.3695 2.08608C60.6346 -0.154147 60.6346 -0.154147 58.7179 0.256276Z" fill="#2E2E2E"/>
<path d="M65.4436 0.632722C67.3428 2.17181 69.9912 5.23288 70.845 6.87458C71.0367 7.2337 71.2632 7.52441 71.3677 7.52441C71.6465 7.52441 73.9813 5.89982 74.5388 5.33549L75.0093 4.83956L74.1904 4.15552C72.3434 2.63354 70.6708 1.67588 68.5625 0.940539C67.4996 0.564318 65.1997 -1.43051e-05 64.7815 -1.43051e-05C64.7118 -1.43051e-05 65.008 0.290702 65.4436 0.632722Z" fill="#2E2E2E"/>
<path d="M61.1225 1.33377C59.8157 2.35983 58.1604 4.05282 57.0627 5.50641C55.965 6.97709 55.181 8.31097 55.3552 8.46487C55.8082 8.9095 59.9551 9.91846 61.3316 9.91846H62.1156V5.30119C62.1156 2.75315 62.0808 0.683931 62.0459 0.683931C62.0111 0.683931 61.5929 0.974648 61.1225 1.33377Z" fill="#2E2E2E"/>
<path d="M63.3353 5.40377V9.96973L64.433 9.85002C66.5587 9.61061 69.9564 8.55035 69.9564 8.12282C69.9564 7.7637 68.3185 5.43797 67.1163 4.06989C66.1406 2.97543 64.3633 1.41924 63.5618 0.957512C63.3876 0.854906 63.3353 1.79546 63.3353 5.40377Z" fill="#2E2E2E"/>
<path d="M48.0025 6.94287C45.9639 9.59352 44.3435 13.9201 44.3435 16.6904V17.4429L47.9502 17.4087L51.5569 17.3574L51.766 15.5618C52.01 13.4754 52.3759 11.8338 52.9683 10.2263L53.3864 9.08049L52.1319 8.31095C51.435 7.90053 50.4592 7.19939 49.954 6.77186C49.4312 6.34434 48.9608 5.98522 48.8737 5.98522C48.804 5.98522 48.4032 6.41274 48.0025 6.94287Z" fill="#2E2E2E"/>
<path d="M75.0094 6.68641C74.5738 7.06263 73.7026 7.71247 73.0579 8.12289L71.908 8.87534L72.3958 10.1237C72.9708 11.6286 73.389 13.3729 73.6678 15.6473L73.8768 17.3574H77.1874H80.4979L80.463 16.2459C80.3411 13.2532 78.8426 9.47387 76.7518 6.85742C76.3684 6.37859 75.9851 5.98527 75.9154 5.98527C75.8457 5.98527 75.445 6.31019 75.0094 6.68641Z" fill="#2E2E2E"/>
<path d="M70.1306 9.66193C68.9458 10.2776 65.914 11.0129 64.0323 11.1497L63.4224 11.201L63.3702 14.3134L63.3353 17.4429H67.8481C70.5488 17.4429 72.4131 17.3745 72.4828 17.2719C72.6222 17.0666 72.2737 14.3818 71.9427 13.0821C71.6639 12.0048 70.8624 9.74743 70.6707 9.54222C70.6185 9.49092 70.3745 9.54222 70.1306 9.66193Z" fill="#2E2E2E"/>
<path d="M53.9614 11.4063C53.2819 13.5268 53.0554 14.6555 53.0031 16.1604L52.9683 17.3574H57.4984H62.0286L62.0809 14.3305L62.1157 11.3037L61.1226 11.2011C59.2582 11.013 57.8469 10.7222 56.3136 10.2434C55.4599 9.9698 54.7106 9.74749 54.6235 9.74749C54.5538 9.74749 54.2576 10.4999 53.9614 11.4063Z" fill="#2E2E2E"/>
<path d="M44.3435 19.2217C44.3435 20.9318 45.1276 23.7363 46.2253 25.9081C46.748 26.9342 48.6472 29.7559 48.8214 29.7559C48.8563 29.7559 49.4835 29.277 50.2327 28.6956C50.9645 28.1313 51.9403 27.4301 52.4107 27.1565C52.8637 26.8658 53.2296 26.6093 53.2296 26.558C53.2296 26.5067 52.9857 25.72 52.7069 24.8308C52.1668 23.2062 51.6615 20.5042 51.6615 19.273V18.6402H48.0025H44.3435V19.2217Z" fill="#2E2E2E"/>
<path d="M52.9683 18.8284C52.7069 19.2217 53.1948 22.0605 53.9266 24.4546C54.4493 26.1305 54.3274 26.0792 56.1743 25.4807C57.0803 25.19 58.753 24.8138 59.9204 24.6427L62.0287 24.352V21.5475V18.7258L57.5508 18.6745C54.4145 18.6403 53.038 18.6916 52.9683 18.8284Z" fill="#2E2E2E"/>
<path d="M63.4573 18.7597C63.3876 18.811 63.3353 20.1278 63.3353 21.6498V24.4372L64.1717 24.5399C66.1754 24.7964 68.0572 25.2239 69.3291 25.6856C70.9147 26.2842 70.7927 26.3526 71.4374 24.4543C71.9775 22.8298 72.3434 21.2565 72.4828 19.7858L72.6048 18.64H68.092C65.6004 18.64 63.5096 18.6913 63.4573 18.7597Z" fill="#2E2E2E"/>
<path d="M73.72 19.9567C73.5458 21.7523 73.1451 23.5992 72.5527 25.258C72.2739 26.0276 72.0474 26.7116 72.0474 26.7971C72.0474 26.8826 72.5352 27.2588 73.1451 27.6522C73.7375 28.0284 74.6087 28.6782 75.0617 29.0715C76.02 29.8924 75.7761 30.0121 77.1874 28.1139C78.0934 26.8997 79.1563 24.8476 79.7138 23.2572C80.0623 22.2483 80.585 19.6831 80.585 18.9307C80.585 18.657 80.3062 18.6399 77.2048 18.6399H73.842L73.72 19.9567Z" fill="#2E2E2E"/>
<path d="M59.8507 25.9079C58.4394 26.1302 55.8433 26.8485 55.3554 27.1734C54.6584 27.6009 58.0909 32.1669 60.6696 34.2361C61.5234 34.9201 61.9764 35.1767 62.0287 35.0227C62.0635 34.903 62.0984 32.7654 62.0635 30.2687C62.0287 25.0358 62.2726 25.5317 59.8507 25.9079Z" fill="#2E2E2E"/>
<path d="M63.4051 25.891C63.2657 26.2843 63.2483 35.0571 63.4051 35.0571C63.8581 35.0571 67.0641 32.0303 68.2315 30.4912C68.9285 29.5677 70.1307 27.7037 70.1307 27.5156C70.1307 27.3617 67.9353 26.5579 66.7331 26.2501C65.0778 25.8397 63.4922 25.6687 63.4051 25.891Z" fill="#2E2E2E"/>
<path d="M53.038 28.3363C52.1146 28.8836 50.4419 30.1148 50.0934 30.5253C49.8669 30.7989 49.9192 30.9015 50.6161 31.5C52.7941 33.3469 55.5819 34.7492 58.5091 35.399C59.45 35.6042 60.2515 35.7582 60.2863 35.7069C60.3212 35.6727 59.9727 35.3306 59.4848 34.9715C57.9515 33.7744 55.9304 31.3632 54.5191 29.0375L53.8221 27.8917L53.038 28.3363Z" fill="#2E2E2E"/>
<path d="M71.1762 28.3532C71.1762 28.5243 69.9042 30.4567 69.155 31.4314C68.3535 32.4575 67.0467 33.8427 65.9665 34.7832C64.921 35.6896 65.0604 35.7409 66.9945 35.2107C69.5035 34.5267 72.2913 33.056 74.2253 31.3972L74.9223 30.7987L74.4867 30.337C74.2428 30.0975 73.511 29.5161 72.8489 29.0544C71.7163 28.2677 71.1762 28.0454 71.1762 28.3532Z" fill="#2E2E2E"/>
<path d="M128.5 41.3842C128.5 41.4697 128.605 41.5553 128.744 41.5553C129.093 41.5553 129.197 42.1025 129.197 43.9494C129.197 45.7963 129.093 46.3435 128.744 46.3435C128.605 46.3435 128.5 46.4119 128.5 46.5145C128.5 46.6 128.884 46.6855 129.371 46.6855H130.225L131.271 44.7531C132.821 41.8631 132.839 41.8631 132.839 43.6074C132.856 45.4543 132.699 46.3435 132.403 46.3435C132.264 46.3435 132.159 46.4119 132.159 46.5145C132.159 46.6171 132.682 46.6855 133.379 46.6855C134.546 46.6855 134.999 46.4803 134.25 46.2922C133.919 46.2067 133.902 46.0528 133.902 43.9494C133.902 41.846 133.919 41.6921 134.25 41.6066C134.912 41.4355 134.599 41.2132 133.675 41.2132H132.769L131.584 43.4364C130.922 44.6505 130.365 45.6595 130.312 45.6595C130.277 45.6595 130.243 44.7702 130.243 43.6758C130.243 41.846 130.26 41.6921 130.591 41.6066C131.34 41.4184 130.887 41.2132 129.72 41.2132C129.023 41.2132 128.5 41.2816 128.5 41.3842Z" fill="#2E2E2E"/>
<path d="M134.947 41.8973C134.947 42.6155 135.226 42.8549 135.33 42.188C135.383 41.8631 135.505 41.8118 136.219 41.7605L137.038 41.7092V43.4877C137.038 45.574 136.916 46.3435 136.585 46.3435C136.445 46.3435 136.341 46.4119 136.341 46.5145C136.341 46.6171 136.864 46.6855 137.561 46.6855C138.728 46.6855 139.181 46.4803 138.432 46.2922C138.101 46.2067 138.083 46.0528 138.083 43.9665V41.7263H138.867C139.582 41.7263 139.651 41.7605 139.651 42.1538C139.651 42.3932 139.739 42.5813 139.826 42.5813C139.93 42.5813 140 42.2735 140 41.8973V41.2132H137.473H134.947V41.8973Z" fill="#2E2E2E"/>
<path d="M8.03236 46.8906C7.89297 47.1984 6.51649 50.5844 4.9832 54.3979L2.16055 61.3409L1.08027 61.4948C0.0348475 61.6487 0 61.6658 0 62.1617V62.6747H2.7878H5.57561V62.1617C5.57561 61.6829 5.52334 61.6487 4.73927 61.529C4.26882 61.4606 3.85065 61.3922 3.81581 61.3409C3.78096 61.3067 4.12943 60.3319 4.59988 59.1519L5.45364 57.0314L8.04978 56.9801L10.6459 56.9459L11.4126 59.0151C11.8482 60.1609 12.2141 61.1528 12.2489 61.2212C12.2838 61.2896 11.8656 61.4093 11.3429 61.4606C10.2626 61.5974 10.1058 61.7342 10.2626 62.3498L10.3671 62.7603L13.6428 62.7261L16.9011 62.6747V62.1617C16.9011 61.6658 16.8662 61.6487 15.8731 61.4777L14.8451 61.3067L14.4095 60.1951C14.183 59.5795 13.6951 58.2798 13.3292 57.2879C11.5171 52.38 9.44369 46.9077 9.30429 46.634C9.21718 46.4801 8.9384 46.3433 8.69446 46.3433C8.36341 46.3433 8.2066 46.4801 8.03236 46.8906ZM8.83385 52.0892C9.77474 54.6031 10.0187 55.2871 10.0187 55.441C10.0187 55.5094 9.1649 55.5778 8.10205 55.5778C6.69073 55.5778 6.18544 55.5265 6.18544 55.3555C6.18544 54.9451 8.01494 50.6186 8.17175 50.6699C8.25887 50.7041 8.55507 51.3368 8.83385 52.0892Z" fill="#2E2E2E"/>
<path d="M62.2204 46.4977C62.1507 46.6003 61.2447 48.8063 60.1818 51.4228C59.119 54.0392 57.7773 57.3397 57.2023 58.7591L56.1395 61.3585L55.0766 61.4953C54.0486 61.6492 54.0138 61.6663 54.0138 62.1622V62.6752H56.8016H59.5894V62.1622C59.5894 61.6834 59.5371 61.6492 58.7531 61.5295C58.2826 61.4611 57.8644 61.3756 57.8296 61.3414C57.7773 61.2901 58.1258 60.3153 58.5962 59.1524L59.4674 57.0319L62.0113 56.9806L64.5726 56.9293L64.8514 57.5791C65.165 58.3316 66.1233 60.8796 66.1756 61.119C66.193 61.2046 65.8097 61.3585 65.3044 61.4611C64.2241 61.6834 64.137 61.7689 64.2764 62.3332L64.3809 62.7607L67.6566 62.7265L70.9149 62.6752V62.1622C70.9149 61.6834 70.8626 61.6492 69.9043 61.4782C69.3293 61.3756 68.824 61.1875 68.7369 61.0506C68.6672 60.9138 68.1967 59.6826 67.7089 58.3145C67.2036 56.9464 66.646 55.4415 66.4544 54.9798C66.2801 54.501 65.4786 52.3976 64.6771 50.277C63.3355 46.6687 63.2135 46.4293 62.778 46.378C62.534 46.3438 62.2727 46.3951 62.2204 46.4977ZM63.1613 52.9961C63.6317 54.2445 64.0325 55.3389 64.0325 55.4244C64.0325 55.5099 63.1787 55.5783 62.1158 55.5783C60.6348 55.5783 60.1992 55.527 60.1992 55.356C60.1992 55.0482 61.7674 51.115 61.9939 50.8243C62.081 50.7046 62.1855 50.6362 62.2204 50.6704C62.2552 50.7046 62.6734 51.7477 63.1613 52.9961Z" fill="#2E2E2E"/>
<path d="M18.2775 46.9252C18.0336 47.5751 18.2775 47.7974 19.3927 47.9342L20.4729 48.0881V54.7233V61.3585L19.323 61.4782L18.1904 61.5979L18.2427 62.1451L18.295 62.6752H21.6055H24.916L24.9683 62.1451C25.0205 61.615 25.0205 61.615 23.9577 61.4953L22.9123 61.3756L22.9471 54.7575L22.9994 48.1394H26.397H29.7947L29.8469 54.7575L29.8818 61.3585L28.8364 61.4782L27.7909 61.5979V62.1793V62.7607L31.1537 62.7265L34.4991 62.6752V62.1622C34.4991 61.6663 34.4642 61.6492 33.4188 61.5124L32.3211 61.3585V54.7233V48.0881L33.4188 47.9342C34.4642 47.7974 34.4991 47.7803 34.4991 47.2844V46.7713L26.4319 46.72C19.5146 46.6858 18.3647 46.72 18.2775 46.9252Z" fill="#2E2E2E"/>
<path d="M36.5726 46.9248C36.3286 47.5746 36.5726 47.797 37.6877 47.9338L38.7679 48.0877V54.7057V61.3409L37.6877 61.4948C36.6248 61.6487 36.59 61.6658 36.59 62.1618V62.6748H39.9005H43.211L43.2633 62.1447L43.3156 61.5974L42.2527 61.4777L41.2073 61.358L41.2421 54.7571L41.2944 48.139H44.692H48.0897L48.1419 54.7571L48.1768 61.358L47.1314 61.4777L46.0685 61.5974L46.1208 62.1447L46.1731 62.6748H49.4836H52.7941V62.1618C52.7941 61.6658 52.7592 61.6487 51.7138 61.5119L50.6161 61.358V54.7228V48.0877L51.7138 47.9338C52.7592 47.797 52.7941 47.7799 52.7941 47.2839V46.7709L44.7269 46.7196C37.8096 46.6854 36.6597 46.7196 36.5726 46.9248Z" fill="#2E2E2E"/>
<path d="M72.2912 46.9081C72.0473 47.5751 72.2912 47.7974 73.4063 47.9342L74.4866 48.0881V54.7233V61.3585L73.3366 61.4782L72.2041 61.5979L72.2564 62.128L72.3086 62.6752L75.8457 62.7265L79.3653 62.7607V62.1793V61.615L78.1456 61.4953L76.9259 61.3756V58.5539C76.9259 56.3308 76.9782 55.7493 77.1525 55.7493C77.2918 55.7493 77.8146 55.8348 78.3547 55.9375C80.4978 56.365 83.7561 54.8088 84.6098 52.9277C85.3416 51.3544 84.8015 48.9774 83.4947 47.9513C82.1531 46.9081 81.6129 46.8055 76.804 46.72C72.9359 46.6516 72.3783 46.6858 72.2912 46.9081ZM80.2713 48.4301C83.0417 49.251 82.9546 53.5946 80.1493 54.3642C79.766 54.4668 78.8774 54.5523 78.1979 54.5523H76.9259V51.4228C76.9259 49.6956 76.9782 48.2249 77.0653 48.1565C77.2221 47.9855 79.4001 48.1736 80.2713 48.4301Z" fill="#2E2E2E"/>
<path d="M86.753 46.9249C86.509 47.5747 86.753 47.797 87.8681 47.9339L88.9484 48.0878V54.7058V61.341L87.8681 61.4949C86.8052 61.6488 86.7704 61.6659 86.7704 62.1619V62.6749L92.7642 62.7262C97.4512 62.7604 98.7928 62.7091 98.9148 62.5552C98.9845 62.4355 99.0542 61.512 99.0542 60.5031C99.0542 58.6904 99.0542 58.6562 98.636 58.5536C97.7648 58.3484 97.5557 58.5707 97.2944 59.99L97.0504 61.3068H94.2626H91.4748V58.2286V55.1505L92.8339 55.0992C94.402 55.0479 94.6982 55.1847 94.6982 55.9884C94.6982 57.0487 94.8725 57.3052 95.4649 57.2539L96.005 57.2026V54.4664V51.7303L95.5868 51.679C95.0293 51.5935 94.8202 51.85 94.6982 52.8076L94.6111 53.6114L92.9907 53.6627L91.3877 53.714L91.4225 50.9265L91.4748 48.1391H94.0884H96.7019L96.8413 48.9086C97.2421 51.012 97.1724 50.8752 97.9216 50.8752H98.6186V48.8231V46.771L92.7293 46.7197C87.7113 46.6855 86.8401 46.7197 86.753 46.9249Z" fill="#2E2E2E"/>
<path d="M104.281 47.2671V47.8314L105.501 47.9511L106.721 48.0709V49.0456C106.721 50.3624 106.268 54.4837 105.937 56.2451C105.78 57.0318 105.449 58.1604 105.205 58.759C104.525 60.4349 103.672 60.8966 102.504 60.2296L101.981 59.9389L101.511 60.5033C100.832 61.2728 100.553 61.8371 100.675 62.145C100.866 62.6067 101.877 63 102.888 63C106.024 62.9658 107.784 58.7419 108.237 50.1401L108.341 48.0366L110.101 48.088L111.861 48.1393V54.7231V61.307L110.815 61.478C109.805 61.649 109.77 61.6832 109.77 62.1621V62.6751L113.098 62.7264C116.077 62.7606 116.443 62.7435 116.548 62.487C116.792 61.8542 116.513 61.5977 115.433 61.478L114.387 61.3583V54.7231V48.0709L115.415 47.9511C116.495 47.8314 116.757 47.6262 116.565 47.0106C116.461 46.7028 116.147 46.6857 110.362 46.6857H104.281V47.2671Z" fill="#2E2E2E"/>
<path d="M118.464 46.9251C118.22 47.5749 118.464 47.7972 119.579 47.934L120.66 48.0879V54.706V61.3412L119.579 61.4951C118.516 61.649 118.482 61.6661 118.482 62.162V62.675L121.705 62.7264C128.483 62.829 130.643 61.9055 131.271 58.6221C131.689 56.399 130.452 54.4324 128.117 53.5944C127.681 53.4234 126.497 53.2695 125.277 53.2011L123.186 53.0985L123.134 50.5847L123.081 48.0708L124.301 47.9511C125.573 47.8314 125.869 47.6091 125.608 46.9593C125.521 46.7198 125.085 46.6856 122.036 46.6856C119.161 46.6856 118.534 46.7369 118.464 46.9251ZM126.078 54.8257C127.437 55.219 128.413 56.228 128.587 57.3908C128.831 59.1864 127.995 60.64 126.444 61.0676C125.991 61.1873 125.085 61.2899 124.406 61.2899L123.186 61.307L123.134 57.921L123.099 54.5521H124.109C124.667 54.5521 125.556 54.6718 126.078 54.8257Z" fill="#2E2E2E"/>
</svg>
