<svg width="141" height="63" viewBox="0 0 141 63" fill="none" xmlns="http://www.w3.org/2000/svg">
<path d="M59.2179 0.25652C57.615 0.59854 55.4718 1.41939 54.0605 2.22313C52.806 2.94137 50.4189 4.71988 50.4189 4.94219C50.4189 5.1303 52.4227 6.66939 53.4507 7.28502L54.4438 7.86646L54.74 7.33632C55.7506 5.55782 57.0226 3.95033 58.8695 2.08632C61.1346 -0.153903 61.1346 -0.153903 59.2179 0.25652Z" fill="white"/>
<path d="M65.9436 0.632722C67.8428 2.17181 70.4912 5.23288 71.345 6.87458C71.5367 7.2337 71.7632 7.52441 71.8677 7.52441C72.1465 7.52441 74.4813 5.89982 75.0388 5.33549L75.5093 4.83956L74.6904 4.15552C72.8434 2.63354 71.1708 1.67588 69.0625 0.940539C67.9996 0.564318 65.6997 -1.43051e-05 65.2815 -1.43051e-05C65.2118 -1.43051e-05 65.508 0.290702 65.9436 0.632722Z" fill="white"/>
<path d="M61.6225 1.33377C60.3157 2.35983 58.6604 4.05282 57.5627 5.50641C56.465 6.97709 55.681 8.31097 55.8552 8.46487C56.3082 8.9095 60.4551 9.91846 61.8316 9.91846H62.6156V5.30119C62.6156 2.75315 62.5808 0.683931 62.5459 0.683931C62.5111 0.683931 62.0929 0.974648 61.6225 1.33377Z" fill="white"/>
<path d="M63.8353 5.40377V9.96973L64.933 9.85002C67.0587 9.61061 70.4564 8.55035 70.4564 8.12282C70.4564 7.7637 68.8185 5.43797 67.6163 4.06989C66.6406 2.97543 64.8633 1.41924 64.0618 0.957512C63.8876 0.854906 63.8353 1.79546 63.8353 5.40377Z" fill="white"/>
<path d="M48.5025 6.94287C46.4639 9.59352 44.8435 13.9201 44.8435 16.6904V17.4429L48.4502 17.4087L52.0569 17.3574L52.266 15.5618C52.51 13.4754 52.8759 11.8338 53.4683 10.2263L53.8864 9.08049L52.6319 8.31095C51.935 7.90053 50.9592 7.19939 50.454 6.77186C49.9312 6.34434 49.4608 5.98522 49.3737 5.98522C49.304 5.98522 48.9032 6.41274 48.5025 6.94287Z" fill="white"/>
<path d="M75.5094 6.68641C75.0738 7.06263 74.2026 7.71247 73.5579 8.12289L72.408 8.87534L72.8958 10.1237C73.4708 11.6286 73.889 13.3729 74.1678 15.6473L74.3768 17.3574H77.6874H80.9979L80.963 16.2459C80.8411 13.2532 79.3426 9.47387 77.2518 6.85742C76.8684 6.37859 76.4851 5.98527 76.4154 5.98527C76.3457 5.98527 75.945 6.31019 75.5094 6.68641Z" fill="white"/>
<path d="M70.6306 9.66193C69.4458 10.2776 66.414 11.0129 64.5323 11.1497L63.9224 11.201L63.8702 14.3134L63.8353 17.4429H68.3481C71.0488 17.4429 72.9131 17.3745 72.9828 17.2719C73.1222 17.0666 72.7737 14.3818 72.4427 13.0821C72.1639 12.0048 71.3624 9.74743 71.1707 9.54222C71.1185 9.49092 70.8745 9.54222 70.6306 9.66193Z" fill="white"/>
<path d="M54.4614 11.4063C53.7819 13.5268 53.5554 14.6555 53.5031 16.1604L53.4683 17.3574H57.9984H62.5286L62.5809 14.3305L62.6157 11.3037L61.6226 11.2011C59.7582 11.013 58.3469 10.7222 56.8136 10.2434C55.9599 9.9698 55.2106 9.74749 55.1235 9.74749C55.0538 9.74749 54.7576 10.4999 54.4614 11.4063Z" fill="white"/>
<path d="M44.8435 19.2214C44.8435 20.9315 45.6276 23.7361 46.7253 25.9079C47.248 26.934 49.1472 29.7556 49.3214 29.7556C49.3563 29.7556 49.9835 29.2768 50.7327 28.6954C51.4645 28.131 52.4403 27.4299 52.9107 27.1563C53.3637 26.8656 53.7296 26.609 53.7296 26.5577C53.7296 26.5064 53.4857 25.7198 53.2069 24.8305C52.6668 23.2059 52.1615 20.504 52.1615 19.2727V18.64H48.5025H44.8435V19.2214Z" fill="white"/>
<path d="M53.4683 18.8282C53.2069 19.2215 53.6948 22.0603 54.4266 24.4544C54.9493 26.1303 54.8274 26.079 56.6743 25.4805C57.5803 25.1897 59.253 24.8135 60.4204 24.6425L62.5287 24.3518V21.5472V18.7256L58.0508 18.6743C54.9145 18.6401 53.538 18.6914 53.4683 18.8282Z" fill="white"/>
<path d="M63.9573 18.7597C63.8876 18.811 63.8353 20.1278 63.8353 21.6498V24.4372L64.6717 24.5399C66.6754 24.7964 68.5572 25.2239 69.8291 25.6856C71.4147 26.2842 71.2927 26.3526 71.9374 24.4543C72.4775 22.8298 72.8434 21.2565 72.9828 19.7858L73.1048 18.64H68.592C66.1004 18.64 64.0096 18.6913 63.9573 18.7597Z" fill="white"/>
<path d="M74.22 19.9567C74.0458 21.7523 73.6451 23.5992 73.0527 25.258C72.7739 26.0276 72.5474 26.7116 72.5474 26.7971C72.5474 26.8826 73.0352 27.2588 73.6451 27.6522C74.2375 28.0284 75.1087 28.6782 75.5617 29.0715C76.52 29.8924 76.2761 30.0121 77.6874 28.1139C78.5934 26.8997 79.6563 24.8476 80.2138 23.2572C80.5623 22.2483 81.085 19.6831 81.085 18.9307C81.085 18.657 80.8062 18.6399 77.7048 18.6399H74.342L74.22 19.9567Z" fill="white"/>
<path d="M60.3507 25.9079C58.9394 26.1302 56.3433 26.8485 55.8554 27.1734C55.1584 27.6009 58.5909 32.1669 61.1696 34.2361C62.0234 34.9201 62.4764 35.1767 62.5287 35.0227C62.5635 34.903 62.5984 32.7654 62.5635 30.2687C62.5287 25.0358 62.7726 25.5317 60.3507 25.9079Z" fill="white"/>
<path d="M63.9051 25.891C63.7657 26.2843 63.7483 35.0571 63.9051 35.0571C64.3581 35.0571 67.5641 32.0303 68.7315 30.4912C69.4285 29.5677 70.6307 27.7037 70.6307 27.5156C70.6307 27.3617 68.4353 26.5579 67.2331 26.2501C65.5778 25.8397 63.9922 25.6687 63.9051 25.891Z" fill="white"/>
<path d="M53.538 28.3363C52.6146 28.8836 50.9419 30.1148 50.5934 30.5253C50.3669 30.7989 50.4192 30.9015 51.1161 31.5C53.2941 33.3469 56.0819 34.7492 59.0091 35.399C59.95 35.6042 60.7515 35.7582 60.7863 35.7069C60.8212 35.6727 60.4727 35.3306 59.9848 34.9715C58.4515 33.7744 56.4304 31.3632 55.0191 29.0375L54.3221 27.8917L53.538 28.3363Z" fill="white"/>
<path d="M71.6762 28.3532C71.6762 28.5243 70.4042 30.4567 69.655 31.4314C68.8535 32.4575 67.5467 33.8427 66.4665 34.7832C65.421 35.6896 65.5604 35.7409 67.4945 35.2107C70.0035 34.5267 72.7913 33.056 74.7253 31.3972L75.4223 30.7987L74.9867 30.337C74.7428 30.0975 74.011 29.5161 73.3489 29.0544C72.2163 28.2677 71.6762 28.0454 71.6762 28.3532Z" fill="white"/>
<path d="M129 41.3845C129 41.47 129.105 41.5555 129.244 41.5555C129.593 41.5555 129.697 42.1027 129.697 43.9496C129.697 45.7965 129.593 46.3438 129.244 46.3438C129.105 46.3438 129 46.4122 129 46.5148C129 46.6003 129.384 46.6858 129.871 46.6858H130.725L131.771 44.7534C133.321 41.8633 133.339 41.8633 133.339 43.6076C133.356 45.4545 133.199 46.3438 132.903 46.3438C132.764 46.3438 132.659 46.4122 132.659 46.5148C132.659 46.6174 133.182 46.6858 133.879 46.6858C135.046 46.6858 135.499 46.4806 134.75 46.2925C134.419 46.207 134.402 46.0531 134.402 43.9496C134.402 41.8462 134.419 41.6923 134.75 41.6068C135.412 41.4358 135.099 41.2135 134.175 41.2135H133.269L132.084 43.4366C131.422 44.6508 130.865 45.6597 130.812 45.6597C130.777 45.6597 130.743 44.7705 130.743 43.676C130.743 41.8462 130.76 41.6923 131.091 41.6068C131.84 41.4187 131.387 41.2135 130.22 41.2135C129.523 41.2135 129 41.2819 129 41.3845Z" fill="white"/>
<path d="M135.447 41.8975C135.447 42.6158 135.726 42.8552 135.83 42.1882C135.883 41.8633 136.005 41.812 136.719 41.7607L137.538 41.7094V43.4879C137.538 45.5742 137.416 46.3438 137.085 46.3438C136.945 46.3438 136.841 46.4122 136.841 46.5148C136.841 46.6174 137.364 46.6858 138.061 46.6858C139.228 46.6858 139.681 46.4806 138.932 46.2925C138.601 46.207 138.583 46.0531 138.583 43.9667V41.7265H139.367C140.082 41.7265 140.151 41.7607 140.151 42.154C140.151 42.3934 140.239 42.5816 140.326 42.5816C140.43 42.5816 140.5 42.2737 140.5 41.8975V41.2135H137.973H135.447V41.8975Z" fill="white"/>
<path d="M8.53236 46.8908C8.39297 47.1986 7.01649 50.5846 5.4832 54.3981L2.66055 61.3411L1.58027 61.495C0.534848 61.6489 0.5 61.666 0.5 62.162V62.675H3.2878H6.07561V62.162C6.07561 61.6831 6.02334 61.6489 5.23927 61.5292C4.76882 61.4608 4.35065 61.3924 4.31581 61.3411C4.28096 61.3069 4.62943 60.3322 5.09988 59.1522L5.95364 57.0317L8.54978 56.9804L11.1459 56.9462L11.9126 59.0154C12.3482 60.1612 12.7141 61.153 12.7489 61.2214C12.7838 61.2898 12.3656 61.4095 11.8429 61.4608C10.7626 61.5976 10.6058 61.7344 10.7626 62.3501L10.8671 62.7605L14.1428 62.7263L17.4011 62.675V62.162C17.4011 61.666 17.3662 61.6489 16.3731 61.4779L15.3451 61.3069L14.9095 60.1954C14.683 59.5797 14.1951 58.28 13.8292 57.2882C12.0171 52.3802 9.94369 46.9079 9.80429 46.6343C9.71718 46.4804 9.4384 46.3436 9.19446 46.3436C8.86341 46.3436 8.7066 46.4804 8.53236 46.8908ZM9.33385 52.0895C10.2747 54.6033 10.5187 55.2874 10.5187 55.4413C10.5187 55.5097 9.6649 55.5781 8.60205 55.5781C7.19073 55.5781 6.68544 55.5268 6.68544 55.3558C6.68544 54.9454 8.51494 50.6188 8.67175 50.6701C8.75887 50.7043 9.05507 51.337 9.33385 52.0895Z" fill="white"/>
<path d="M62.7204 46.4975C62.6507 46.6001 61.7447 48.8061 60.6818 51.4226C59.619 54.039 58.2773 57.3395 57.7023 58.7589L56.6395 61.3582L55.5766 61.495C54.5486 61.6489 54.5138 61.666 54.5138 62.162V62.675H57.3016H60.0894V62.162C60.0894 61.6831 60.0371 61.6489 59.2531 61.5292C58.7826 61.4608 58.3644 61.3753 58.3296 61.3411C58.2773 61.2898 58.6258 60.3151 59.0962 59.1522L59.9674 57.0317L62.5113 56.9804L65.0726 56.9291L65.3514 57.5789C65.665 58.3313 66.6233 60.8794 66.6756 61.1188C66.693 61.2043 66.3097 61.3582 65.8044 61.4608C64.7241 61.6831 64.637 61.7686 64.7764 62.333L64.8809 62.7605L68.1566 62.7263L71.4149 62.675V62.162C71.4149 61.6831 71.3626 61.6489 70.4043 61.4779C69.8293 61.3753 69.324 61.1872 69.2369 61.0504C69.1672 60.9136 68.6967 59.6823 68.2089 58.3142C67.7036 56.9462 67.146 55.4413 66.9544 54.9796C66.7801 54.5007 65.9786 52.3973 65.1771 50.2768C63.8355 46.6685 63.7135 46.4291 63.278 46.3778C63.034 46.3436 62.7727 46.3949 62.7204 46.4975ZM63.6613 52.9958C64.1317 54.2442 64.5325 55.3387 64.5325 55.4242C64.5325 55.5097 63.6787 55.5781 62.6158 55.5781C61.1348 55.5781 60.6992 55.5268 60.6992 55.3558C60.6992 55.048 62.2674 51.1147 62.4939 50.824C62.581 50.7043 62.6855 50.6359 62.7204 50.6701C62.7552 50.7043 63.1734 51.7475 63.6613 52.9958Z" fill="white"/>
<path d="M18.7775 46.925C18.5336 47.5748 18.7775 47.7971 19.8927 47.934L20.9729 48.0879V54.723V61.3582L19.823 61.4779L18.6904 61.5976L18.7427 62.1449L18.795 62.675H22.1055H25.416L25.4683 62.1449C25.5205 61.6147 25.5205 61.6147 24.4577 61.495L23.4123 61.3753L23.4471 54.7572L23.4994 48.1392H26.897H30.2947L30.3469 54.7572L30.3818 61.3582L29.3364 61.4779L28.2909 61.5976V62.1791V62.7605L31.6537 62.7263L34.9991 62.675V62.162C34.9991 61.666 34.9642 61.6489 33.9188 61.5121L32.8211 61.3582V54.723V48.0879L33.9188 47.934C34.9642 47.7971 34.9991 47.78 34.9991 47.2841V46.7711L26.9319 46.7198C20.0146 46.6856 18.8647 46.7198 18.7775 46.925Z" fill="white"/>
<path d="M37.0726 46.925C36.8286 47.5749 37.0726 47.7972 38.1877 47.934L39.2679 48.0879V54.706V61.3412L38.1877 61.4951C37.1248 61.649 37.09 61.6661 37.09 62.162V62.675H40.4005H43.711L43.7633 62.1449L43.8156 61.5977L42.7527 61.478L41.7073 61.3583L41.7421 54.7573L41.7944 48.1392H45.192H48.5897L48.6419 54.7573L48.6768 61.3583L47.6314 61.478L46.5685 61.5977L46.6208 62.1449L46.6731 62.675H49.9836H53.2941V62.162C53.2941 61.6661 53.2592 61.649 52.2138 61.5122L51.1161 61.3583V54.7231V48.0879L52.2138 47.934C53.2592 47.7972 53.2941 47.7801 53.2941 47.2842V46.7711L45.2269 46.7198C38.3096 46.6856 37.1597 46.7198 37.0726 46.925Z" fill="white"/>
<path d="M72.7912 46.9079C72.5473 47.5748 72.7912 47.7971 73.9063 47.934L74.9866 48.0879V54.723V61.3582L73.8366 61.4779L72.7041 61.5976L72.7564 62.1278L72.8086 62.675L76.3457 62.7263L79.8653 62.7605V62.1791V61.6147L78.6456 61.495L77.4259 61.3753V58.5537C77.4259 56.3305 77.4782 55.7491 77.6525 55.7491C77.7918 55.7491 78.3146 55.8346 78.8547 55.9372C80.9978 56.3647 84.2561 54.8085 85.1098 52.9274C85.8416 51.3541 85.3015 48.9771 83.9947 47.9511C82.6531 46.9079 82.1129 46.8053 77.304 46.7198C73.4359 46.6514 72.8783 46.6856 72.7912 46.9079ZM80.7713 48.4299C83.5417 49.2507 83.4546 53.5944 80.6493 54.3639C80.266 54.4665 79.3774 54.552 78.6979 54.552H77.4259V51.4226C77.4259 49.6954 77.4782 48.2247 77.5653 48.1563C77.7221 47.9853 79.9001 48.1734 80.7713 48.4299Z" fill="white"/>
<path d="M87.253 46.9251C87.009 47.575 87.253 47.7973 88.3681 47.9341L89.4484 48.088V54.7061V61.3413L88.3681 61.4952C87.3052 61.6491 87.2704 61.6662 87.2704 62.1621V62.6751L93.2642 62.7264C97.9512 62.7606 99.2928 62.7093 99.4148 62.5554C99.4845 62.4357 99.5542 61.5123 99.5542 60.5033C99.5542 58.6906 99.5542 58.6564 99.136 58.5538C98.2648 58.3486 98.0557 58.5709 97.7944 59.9903L97.5504 61.3071H94.7626H91.9748V58.2289V55.1507L93.3339 55.0994C94.902 55.0481 95.1982 55.1849 95.1982 55.9887C95.1982 57.0489 95.3725 57.3054 95.9649 57.2541L96.505 57.2028V54.4667V51.7305L96.0868 51.6792C95.5293 51.5937 95.3202 51.8502 95.1982 52.8079L95.1111 53.6116L93.4907 53.6629L91.8877 53.7142L91.9225 50.9268L91.9748 48.1393H94.5884H97.2019L97.3413 48.9089C97.7421 51.0123 97.6724 50.8755 98.4216 50.8755H99.1186V48.8234V46.7712L93.2293 46.7199C88.2113 46.6857 87.3401 46.7199 87.253 46.9251Z" fill="white"/>
<path d="M104.781 47.2671V47.8314L106.001 47.9511L107.221 48.0709V49.0456C107.221 50.3624 106.768 54.4837 106.437 56.2451C106.28 57.0318 105.949 58.1604 105.705 58.759C105.025 60.4349 104.172 60.8966 103.004 60.2296L102.481 59.9389L102.011 60.5033C101.332 61.2728 101.053 61.8371 101.175 62.145C101.366 62.6067 102.377 63 103.388 63C106.524 62.9658 108.284 58.7419 108.737 50.1401L108.841 48.0366L110.601 48.088L112.361 48.1393V54.7231V61.307L111.315 61.478C110.305 61.649 110.27 61.6832 110.27 62.1621V62.6751L113.598 62.7264C116.577 62.7606 116.943 62.7435 117.048 62.487C117.292 61.8542 117.013 61.5977 115.933 61.478L114.887 61.3583V54.7231V48.0709L115.915 47.9511C116.995 47.8314 117.257 47.6262 117.065 47.0106C116.961 46.7028 116.647 46.6857 110.862 46.6857H104.781V47.2671Z" fill="white"/>
<path d="M118.964 46.9251C118.72 47.5749 118.964 47.7972 120.079 47.934L121.16 48.0879V54.706V61.3412L120.079 61.4951C119.016 61.649 118.982 61.6661 118.982 62.162V62.675L122.205 62.7264C128.983 62.829 131.143 61.9055 131.771 58.6221C132.189 56.399 130.952 54.4324 128.617 53.5944C128.181 53.4234 126.997 53.2695 125.777 53.2011L123.686 53.0985L123.634 50.5847L123.581 48.0708L124.801 47.9511C126.073 47.8314 126.369 47.6091 126.108 46.9593C126.021 46.7198 125.585 46.6856 122.536 46.6856C119.661 46.6856 119.034 46.7369 118.964 46.9251ZM126.578 54.8257C127.937 55.219 128.913 56.228 129.087 57.3908C129.331 59.1864 128.495 60.64 126.944 61.0676C126.491 61.1873 125.585 61.2899 124.906 61.2899L123.686 61.307L123.634 57.921L123.599 54.5521H124.609C125.167 54.5521 126.056 54.6718 126.578 54.8257Z" fill="white"/>
</svg>
