<svg width="102" height="38" viewBox="0 0 102 38" fill="none" xmlns="http://www.w3.org/2000/svg">
<path d="M8.26153 0.399999H13.2655V13H11.1775V8.338H8.83753L6.15553 13H3.76153L6.69553 8.05C6.13153 7.858 5.64553 7.588 5.23753 7.24C4.84153 6.88 4.52953 6.46 4.30153 5.98C4.08553 5.488 3.97753 4.954 3.97753 4.378C3.97753 3.25 4.38553 2.308 5.20153 1.552C6.01753 0.783999 7.03753 0.399999 8.26153 0.399999ZM8.36953 6.448H11.1775V2.344H8.36953C7.69753 2.344 7.15153 2.536 6.73153 2.92C6.31153 3.292 6.10153 3.778 6.10153 4.378C6.10153 4.99 6.31153 5.488 6.73153 5.872C7.16353 6.256 7.70953 6.448 8.36953 6.448ZM21.946 0.399999C22.75 0.399999 23.476 0.579999 24.124 0.94C24.784 1.3 25.3 1.798 25.672 2.434C26.044 3.07 26.23 3.778 26.23 4.558C26.23 5.746 25.822 6.736 25.006 7.528C24.19 8.32 23.17 8.716 21.946 8.716H19.354V13H17.284V0.399999H21.946ZM21.838 6.754C22.174 6.754 22.48 6.7 22.756 6.592C23.044 6.484 23.29 6.334 23.494 6.142C23.698 5.95 23.854 5.716 23.962 5.44C24.082 5.164 24.142 4.87 24.142 4.558C24.142 4.138 24.04 3.766 23.836 3.442C23.644 3.106 23.374 2.842 23.026 2.65C22.678 2.458 22.282 2.362 21.838 2.362H19.354V6.754H21.838ZM35.0003 13.234C33.0923 13.234 31.5083 12.616 30.2483 11.38C28.9883 10.132 28.3583 8.572 28.3583 6.7C28.3583 4.828 28.9883 3.274 30.2483 2.038C31.5083 0.789999 33.0923 0.165999 35.0003 0.165999C36.9083 0.165999 38.4923 0.789999 39.7523 2.038C41.0123 3.274 41.6423 4.828 41.6423 6.7C41.6423 7.924 41.3543 9.04 40.7783 10.048C40.2143 11.044 39.4223 11.824 38.4023 12.388C37.3943 12.952 36.2603 13.234 35.0003 13.234ZM31.7603 9.958C32.6243 10.822 33.7043 11.254 35.0003 11.254C36.3083 11.254 37.3883 10.822 38.2403 9.958C39.1043 9.082 39.5363 7.996 39.5363 6.7C39.5363 5.404 39.1043 4.324 38.2403 3.46C37.3883 2.584 36.3083 2.146 35.0003 2.146C33.7043 2.146 32.6243 2.584 31.7603 3.46C30.8963 4.324 30.4643 5.404 30.4643 6.7C30.4643 7.996 30.8963 9.082 31.7603 9.958ZM65.2065 13H63.1005L61.6245 3.874L57.5385 12.802H57.0165L52.9125 3.874L51.4365 13H49.3305L51.3825 0.399999H53.4165L57.2685 8.968L61.1205 0.399999H63.1725L65.2065 13ZM76.9761 13L75.8781 10.264H70.2621L69.1821 13H66.9861L72.0621 0.399999H74.0061L79.2081 13H76.9761ZM73.0521 3.1L70.9821 8.41H75.1581L73.0521 3.1ZM90.4771 0.399999H91.9711V13H89.9191V4.27L83.3131 13H81.8731V0.399999H83.9431V9.04L90.4771 0.399999ZM10.1546 37L9.05663 34.264H3.44063L2.36063 37H0.164626L5.24063 24.4H7.18463L12.3866 37H10.1546ZM6.23063 27.1L4.16063 32.41H8.33663L6.23063 27.1ZM15.0516 24.4H24.5016V37H22.4136V26.326H17.1216V37H15.0516V24.4ZM28.5179 24.4H37.9679V37H35.8799V26.326H30.5879V37H28.5179V24.4ZM50.6061 37L49.5081 34.264H43.8921L42.8121 37H40.6161L45.6921 24.4H47.6361L52.8381 37H50.6061ZM46.6821 27.1L44.6121 32.41H48.7881L46.6821 27.1ZM60.1651 24.4C60.9691 24.4 61.6951 24.58 62.3431 24.94C63.0031 25.3 63.5191 25.798 63.8911 26.434C64.2631 27.07 64.4491 27.778 64.4491 28.558C64.4491 29.746 64.0411 30.736 63.2251 31.528C62.4091 32.32 61.3891 32.716 60.1651 32.716H57.5731V37H55.5031V24.4H60.1651ZM60.0571 30.754C60.3931 30.754 60.6991 30.7 60.9751 30.592C61.2631 30.484 61.5091 30.334 61.7131 30.142C61.9171 29.95 62.0731 29.716 62.1811 29.44C62.3011 29.164 62.3611 28.87 62.3611 28.558C62.3611 28.138 62.2591 27.766 62.0551 27.442C61.8631 27.106 61.5931 26.842 61.2451 26.65C60.8971 26.458 60.5011 26.362 60.0571 26.362H57.5731V30.754H60.0571ZM69.4573 35.038H74.9113V37H67.3873V24.4H74.7133V26.344H69.4573V29.62H74.2453V31.528H69.4573V35.038ZM80.3773 24.4H88.4233V37H86.3533V26.326H82.2313L81.6373 32.752C81.3613 35.596 80.0053 37.018 77.5693 37.018H76.9753V34.984H77.5693C78.7453 34.984 79.3993 34.264 79.5313 32.824L80.3773 24.4ZM97.1729 28.594C98.4449 28.594 99.4889 28.99 100.305 29.782C101.121 30.574 101.529 31.582 101.529 32.806C101.529 34.018 101.121 35.02 100.305 35.812C99.4889 36.604 98.4449 37 97.1729 37H92.4389V24.4H94.5089V28.594H97.1729ZM97.0289 35.056C97.7249 35.056 98.2949 34.846 98.7389 34.426C99.1949 33.994 99.4229 33.448 99.4229 32.788C99.4229 32.128 99.1949 31.588 98.7389 31.168C98.2949 30.736 97.7249 30.52 97.0289 30.52H94.5089V35.056H97.0289Z" fill="#2E2E2E"/>
</svg>
