<svg width="156" height="60" viewBox="0 0 156 60" fill="none" xmlns="http://www.w3.org/2000/svg">
<g clip-path="url(#clip0_112_2909)">
<path d="M23.2792 0.810791C23.32 0.810815 23.3594 0.825742 23.3899 0.852767L45.2092 20.1996C45.2345 20.2224 45.2523 20.2522 45.2604 20.2852C45.2684 20.3182 45.2663 20.3529 45.2545 20.3847C45.2424 20.4162 45.2211 20.4434 45.1933 20.4625C45.1654 20.4817 45.1324 20.4919 45.0986 20.4919H1.47231C1.43848 20.4919 1.40546 20.4817 1.37761 20.4625C1.34977 20.4434 1.32842 20.4162 1.31641 20.3847C1.3045 20.3529 1.30243 20.3182 1.3105 20.2852C1.31856 20.2522 1.33637 20.2224 1.36162 20.1996L23.1732 0.852767C23.2026 0.827015 23.24 0.812186 23.2792 0.810791ZM44.6573 20.1576L23.2792 1.20261L1.92129 20.1576H44.6573Z" fill="#373737" stroke="#373737" stroke-miterlimit="10"/>
<path d="M45.1049 20.1573C45.1286 20.1573 45.1521 20.1626 45.1734 20.1729C45.2036 20.1861 45.2292 20.2079 45.2469 20.2356C45.2647 20.2632 45.2738 20.2956 45.2733 20.3284V59.019C45.2738 59.0519 45.2647 59.0841 45.2469 59.1119C45.2292 59.1395 45.2036 59.1613 45.1734 59.1745C45.1441 59.1878 45.1114 59.1922 45.0796 59.1873C45.0478 59.1822 45.018 59.1681 44.9942 59.1465L23.1732 39.7996C23.1557 39.7841 23.1415 39.7649 23.1319 39.7435C23.1222 39.722 23.1172 39.6988 23.1172 39.6753C23.1172 39.6518 23.1222 39.6286 23.1319 39.6071C23.1415 39.5857 23.1557 39.5665 23.1732 39.5509L44.9864 20.1993C45.0192 20.1712 45.0615 20.1562 45.1049 20.1573ZM44.9381 58.6459V20.6969L23.5443 39.6659L44.9381 58.6459Z" fill="#373737" stroke="#373737" stroke-miterlimit="10"/>
<path d="M1.47113 20.1575C1.51185 20.1579 1.55109 20.1728 1.58182 20.1994L23.395 39.5478C23.4126 39.5634 23.4267 39.5826 23.4363 39.604C23.446 39.6254 23.4509 39.6487 23.4509 39.6722C23.4509 39.6957 23.446 39.7189 23.4363 39.7404C23.4267 39.7618 23.4126 39.781 23.395 39.7966L1.58182 59.1434C1.55803 59.1653 1.52833 59.1795 1.49642 59.1845C1.46452 59.1895 1.43186 59.185 1.40253 59.1715C1.37237 59.1583 1.3468 59.1365 1.32904 59.1087C1.31129 59.0811 1.30214 59.0488 1.30276 59.016V20.3254C1.30214 20.2925 1.31129 20.2602 1.32904 20.2325C1.3468 20.2049 1.37237 20.1831 1.40253 20.1699C1.42416 20.1606 1.44762 20.1563 1.47113 20.1575ZM23.0317 39.6722L1.63794 20.7031V58.6459L23.0317 39.6722Z" fill="#373737" stroke="#373737" stroke-miterlimit="10"/>
<path d="M30.4855 7.12286C30.5148 7.123 30.5435 7.13066 30.5689 7.1451C30.5943 7.15953 30.6155 7.18026 30.6306 7.20528C30.645 7.23061 30.6527 7.25928 30.6527 7.28846C30.6527 7.31763 30.645 7.3463 30.6306 7.37164L23.4328 20.1944L45.2412 58.9363L44.9465 59.1011L23.2441 20.5412L1.6134 59.1011L1.32031 58.9456L23.0524 20.2037L15.8702 7.44161C15.8552 7.41643 15.8473 7.38769 15.8473 7.35843C15.8473 7.32916 15.8552 7.30042 15.8702 7.27524C15.8849 7.25016 15.9058 7.22927 15.9309 7.21456C15.956 7.19986 15.9845 7.19184 16.0136 7.19128L30.4809 7.1322L30.4855 7.12286ZM23.2473 19.8524L30.1987 7.45871L16.3051 7.51624L23.2473 19.8524Z" fill="#373737" stroke="#373737" stroke-miterlimit="10"/>
<path d="M65.6869 37.2973V24.5319L66.0724 24.9211H60.9453V23.6757H71.8355V24.9211H66.7277L67.0939 24.5319V37.2973H65.6869ZM74.3391 37.2973V23.6757H79.948C81.374 23.6757 82.4919 23.9741 83.3015 24.5708C84.1238 25.1546 84.535 26.0173 84.535 27.1589C84.535 28.2876 84.1431 29.1438 83.3593 29.7276C82.5754 30.2984 81.5475 30.5838 80.2757 30.5838L80.6033 30.0973C82.1064 30.0973 83.2501 30.3957 84.0339 30.9924C84.8177 31.5892 85.2096 32.4649 85.2096 33.6195C85.2096 34.787 84.7984 35.6951 83.9761 36.3438C83.1665 36.9795 81.9458 37.2973 80.3142 37.2973H74.3391ZM75.7461 36.1492H80.3142C81.4575 36.1492 82.3249 35.9351 82.916 35.507C83.507 35.0789 83.8026 34.4173 83.8026 33.5222C83.8026 32.64 83.507 31.9914 82.916 31.5762C82.3249 31.1611 81.4575 30.9535 80.3142 30.9535H75.7461V36.1492ZM75.7461 29.8443H79.8709C80.9114 29.8443 81.7081 29.6368 82.2606 29.2216C82.826 28.7935 83.1087 28.1643 83.1087 27.3341C83.1087 26.5038 82.826 25.8811 82.2606 25.4659C81.7081 25.0378 80.9114 24.8238 79.8709 24.8238H75.7461V29.8443ZM94.6936 37.4141C93.6784 37.4141 92.734 37.2454 91.8602 36.9081C90.9993 36.5578 90.2475 36.0714 89.6051 35.4486C88.9754 34.813 88.4807 34.08 88.1209 33.2497C87.774 32.4065 87.6005 31.4854 87.6005 30.4865C87.6005 29.4876 87.774 28.573 88.1209 27.7427C88.4807 26.8995 88.9754 26.1665 89.6051 25.5438C90.2475 24.9081 90.9993 24.4216 91.8602 24.0843C92.7211 23.7341 93.6656 23.5589 94.6936 23.5589C95.7087 23.5589 96.6467 23.7341 97.5076 24.0843C98.3686 24.4216 99.1139 24.9016 99.7435 25.5243C100.386 26.147 100.881 26.88 101.228 27.7232C101.587 28.5665 101.767 29.4876 101.767 30.4865C101.767 31.4854 101.587 32.4065 101.228 33.2497C100.881 34.093 100.386 34.8259 99.7435 35.4486C99.1139 36.0714 98.3686 36.5578 97.5076 36.9081C96.6467 37.2454 95.7087 37.4141 94.6936 37.4141ZM94.6936 36.1297C95.5031 36.1297 96.2484 35.9935 96.9294 35.7211C97.6233 35.4357 98.2208 35.04 98.7219 34.5341C99.2359 34.0151 99.6343 33.4184 99.917 32.7438C100.2 32.0562 100.341 31.3038 100.341 30.4865C100.341 29.6692 100.2 28.9232 99.917 28.2486C99.6343 27.5611 99.2359 26.9643 98.7219 26.4584C98.2208 25.9395 97.6233 25.5438 96.9294 25.2714C96.2484 24.9859 95.5031 24.8432 94.6936 24.8432C93.884 24.8432 93.1323 24.9859 92.4384 25.2714C91.7445 25.5438 91.1406 25.9395 90.6266 26.4584C90.1255 26.9643 89.7271 27.5611 89.4316 28.2486C89.1489 28.9232 89.0075 29.6692 89.0075 30.4865C89.0075 31.2908 89.1489 32.0368 89.4316 32.7243C89.7271 33.4119 90.1255 34.0151 90.6266 34.5341C91.1406 35.04 91.7445 35.4357 92.4384 35.7211C93.1323 35.9935 93.884 36.1297 94.6936 36.1297ZM105.171 37.2973V23.6757H106.578V34.9622L115.213 23.6757H116.504V37.2973H115.097V26.0303L106.462 37.2973H105.171ZM110.799 22.6832C109.835 22.6832 109.071 22.4627 108.505 22.0216C107.953 21.5805 107.67 20.9643 107.657 20.173H108.717C108.73 20.6919 108.923 21.1005 109.296 21.3989C109.681 21.6973 110.182 21.8465 110.799 21.8465C111.416 21.8465 111.911 21.6973 112.283 21.3989C112.669 21.1005 112.868 20.6919 112.881 20.173H113.941C113.928 20.9643 113.639 21.5805 113.073 22.0216C112.508 22.4627 111.75 22.6832 110.799 22.6832ZM68.9057 56.8735C67.8906 56.8735 66.9526 56.7049 66.0916 56.3676C65.2307 56.0173 64.4854 55.5308 63.8558 54.9081C63.2261 54.2854 62.7314 53.5524 62.3716 52.7092C62.0247 51.8659 61.8512 50.9449 61.8512 49.9459C61.8512 48.947 62.0247 48.0259 62.3716 47.1827C62.7314 46.3395 63.2261 45.6065 63.8558 44.9838C64.4983 44.3611 65.25 43.8811 66.1109 43.5438C66.9718 43.1935 67.9099 43.0184 68.925 43.0184C69.9016 43.0184 70.8203 43.187 71.6813 43.5243C72.5422 43.8486 73.2682 44.3416 73.8593 45.0032L72.9534 45.9178C72.4009 45.347 71.7905 44.9384 71.1223 44.6919C70.4541 44.4324 69.7345 44.3027 68.9636 44.3027C68.154 44.3027 67.4023 44.4454 66.7084 44.7308C66.0145 45.0032 65.4106 45.3989 64.8966 45.9178C64.3826 46.4238 63.9778 47.0205 63.6823 47.7081C63.3996 48.3827 63.2583 49.1286 63.2583 49.9459C63.2583 50.7632 63.3996 51.5157 63.6823 52.2032C63.9778 52.8778 64.3826 53.4746 64.8966 53.9935C65.4106 54.4995 66.0145 54.8951 66.7084 55.1805C67.4023 55.453 68.154 55.5892 68.9636 55.5892C69.7345 55.5892 70.4541 55.4595 71.1223 55.2C71.7905 54.9405 72.4009 54.5254 72.9534 53.9546L73.8593 54.8692C73.2682 55.5308 72.5422 56.0303 71.6813 56.3676C70.8203 56.7049 69.8952 56.8735 68.9057 56.8735ZM79.3146 56.7568V43.9914L79.7002 44.3805H74.5731V43.1351H85.4634V44.3805H80.3555L80.7217 43.9914V56.7568H79.3146ZM85.3036 56.7568L91.4715 43.1351H92.8785L99.0464 56.7568H97.543L91.8762 43.9719H92.4545L86.7877 56.7568H85.3036ZM87.7322 53.1178L88.1562 51.9503H96.001L96.4251 53.1178H87.7322ZM101.632 56.7568V43.1351H106.682C107.826 43.1351 108.809 43.3232 109.631 43.6995C110.454 44.0627 111.083 44.5946 111.52 45.2951C111.97 45.9827 112.195 46.8195 112.195 47.8054C112.195 48.7654 111.97 49.5957 111.52 50.2962C111.083 50.9838 110.454 51.5157 109.631 51.8919C108.809 52.2681 107.826 52.4562 106.682 52.4562H102.423L103.059 51.7751V56.7568H101.632ZM103.059 51.8919L102.423 51.1914H106.644C107.993 51.1914 109.015 50.8995 109.708 50.3157C110.415 49.7189 110.769 48.8822 110.769 47.8054C110.769 46.7157 110.415 45.8724 109.708 45.2757C109.015 44.6789 107.993 44.3805 106.644 44.3805H102.423L103.059 43.6995V51.8919ZM117.336 56.7568V43.9914L117.723 44.3805H112.596V43.1351H123.486V44.3805H118.378L118.744 43.9914V56.7568H117.336ZM123.326 56.7568L129.494 43.1351H130.901L137.069 56.7568H135.565L129.899 43.9719H130.477L124.81 56.7568H123.326ZM125.755 53.1178L126.179 51.9503H134.023L134.447 53.1178H125.755ZM139.655 56.7568V43.1351H151.008V56.7568H149.601V43.9914L149.967 44.3805H140.696L141.062 43.9914V56.7568H139.655Z" fill="#373737"/>
</g>
<defs>
<clipPath id="clip0_112_2909">
<rect width="155" height="60" fill="white" transform="translate(0.5)"/>
</clipPath>
</defs>
</svg>
